<svg id="Layer_3" height="512" viewBox="0 0 64 64" width="512" xmlns="http://www.w3.org/2000/svg" data-name="Layer 3"><path d="m54 45.683a12 12 0 0 1 8 11.317v5h-60v-5a12 12 0 0 1 8-11.317" fill="#2d4d83"/><path d="m24.15 37a27.244 27.244 0 0 1 -4.15-14.454v-3.546l6.687-4.458a9.176 9.176 0 0 1 5.093-1.542 9.178 9.178 0 0 0 5.735-2.012l2.485-1.988 2.321 3.481a10 10 0 0 1 1.679 5.547v4.518a27.236 27.236 0 0 1 -4.151 14.454" fill="#fadfb2"/><path d="m21.048 30.028a27.221 27.221 0 0 1 -1.048-7.482v-.546h-1.3a2.7 2.7 0 0 0 -2.7 2.7 2.7 2.7 0 0 0 1.014 2.109l4.034 3.217z" fill="#f5cf88"/><path d="m43 30 3.986-3.189a2.7 2.7 0 0 0 1.014-2.111 2.7 2.7 0 0 0 -2.7-2.7h-1.3v.546a27.219 27.219 0 0 1 -1.037 7.444z" fill="#f5cf88"/><path d="m44 22 2.711-7.455a9.348 9.348 0 0 0 -.243-6.992 9.35 9.35 0 0 0 -8.544-5.553h-8.49a32.9 32.9 0 0 0 -17.434 5l2.411.8a3.567 3.567 0 0 1 2.189 4.713 3.571 3.571 0 0 0 .121 2.92l3.279 6.567v-3l6.687-4.458a9.176 9.176 0 0 1 5.093-1.542 9.178 9.178 0 0 0 5.735-2.012l2.485-1.988 2.321 3.481a10 10 0 0 1 1.679 5.547z" fill="#976947"/><path d="m24 22h6a0 0 0 0 1 0 0v4a2 2 0 0 1 -2 2h-2a2 2 0 0 1 -2-2v-4a0 0 0 0 1 0 0z" fill="#f2f0eb"/><path d="m34 22h6a0 0 0 0 1 0 0v4a2 2 0 0 1 -2 2h-2a2 2 0 0 1 -2-2v-4a0 0 0 0 1 0 0z" fill="#f2f0eb"/><path d="m30 23h4v2h-4z" fill="#a8b0bc"/><path d="m10 62v-21a4 4 0 0 1 4-4h36a4 4 0 0 1 4 4v21" fill="#d5cec2"/><circle cx="32" cy="54" fill="#e7e4dd" r="3"/><g fill="#c66b60"><path d="m25.292 48.707-4-4a1 1 0 0 1 0-1.415l4-4 1.415 1.415-3.293 3.293 3.293 3.292z"/><path d="m38.707 48.707-1.415-1.415 3.293-3.292-3.293-3.293 1.415-1.415 4 4a1 1 0 0 1 0 1.415z"/><path d="m26.999 42.999h10v2h-10z" transform="matrix(.6 -.8 .8 .6 -22.4 43.207)"/></g><path d="m63 57a13.019 13.019 0 0 0 -8-11.994v-4.006a5.005 5.005 0 0 0 -5-5h-8.418a28.18 28.18 0 0 0 2.226-5.367l3.8-3.042a3.694 3.694 0 0 0 -2.188-6.579l2.228-6.126a10.349 10.349 0 0 0 -9.725-13.886h-8.489a33.87 33.87 0 0 0 -17.965 5.151 1 1 0 0 0 .214 1.8l2.411.8a2.569 2.569 0 0 1 1.572 3.39 4.569 4.569 0 0 0 .156 3.738l2.578 5.151a3.689 3.689 0 0 0 -2.008 6.562l3.8 3.041a28.187 28.187 0 0 0 2.226 5.367h-8.418a5.005 5.005 0 0 0 -5 5v4.005a13.019 13.019 0 0 0 -8 11.995v5a1 1 0 0 0 1 1h60a1 1 0 0 0 1-1zm-23-36h-6a1 1 0 0 0 -1 1v1h-2v-1a1 1 0 0 0 -1-1h-9v-1.465l6.242-4.162a8.154 8.154 0 0 1 4.537-1.373 10.217 10.217 0 0 0 6.36-2.231l1.633-1.308 1.716 2.574a8.968 8.968 0 0 1 1.512 4.992v2.973zm-1 2v3a1 1 0 0 1 -1 1h-2a1 1 0 0 1 -1-1v-3zm-10 0v3a1 1 0 0 1 -1 1h-2a1 1 0 0 1 -1-1v-3zm18 1.7a1.693 1.693 0 0 1 -.638 1.329l-1.813 1.45a28.152 28.152 0 0 0 .434-4.479h.317a1.7 1.7 0 0 1 1.7 1.7zm-29.477-11.817a4.568 4.568 0 0 0 -2.8-6.029l-.3-.1a31.863 31.863 0 0 1 15.011-3.754h8.489a8.349 8.349 0 0 1 7.848 11.2l-.87 2.391a10.969 10.969 0 0 0 -1.749-4.669l-2.321-3.478a1 1 0 0 0 -.678-.433 1.008 1.008 0 0 0 -.778.207l-2.485 1.989a8.215 8.215 0 0 1 -5.111 1.793 10.149 10.149 0 0 0 -5.647 1.709l-6.687 4.458a.961.961 0 0 0 -.17.147l-1.665-3.329a2.573 2.573 0 0 1 -.087-2.102zm.115 13.147a1.7 1.7 0 0 1 1.062-3.03h.314a28.386 28.386 0 0 0 .435 4.48zm3.377-3.03h1.985v3a3 3 0 0 0 3 3h2a3 3 0 0 0 3-3v-1h2v1a3 3 0 0 0 3 3h2a3 3 0 0 0 3-3v-3h1.984a26.2 26.2 0 0 1 -3.71 13h-14.548a26.2 26.2 0 0 1 -3.711-13zm-7.015 15h36a3 3 0 0 1 3 3v20h-42v-20a3 3 0 0 1 3-3zm-11 19a11.019 11.019 0 0 1 6-9.793v13.793h-6zm58 4h-6v-13.794a11.02 11.02 0 0 1 6 9.794z"/><path d="m32 58a4 4 0 1 0 -4-4 4 4 0 0 0 4 4zm0-6a2 2 0 1 1 -2 2 2 2 0 0 1 2-2z"/><path d="m25.292 48.707 1.415-1.415-3.293-3.292 3.293-3.293-1.415-1.415-4 4a1 1 0 0 0 0 1.415z"/><path d="m38.707 48.707 4-4a1 1 0 0 0 0-1.415l-4-4-1.415 1.415 3.293 3.293-3.293 3.292z"/><path d="m26.999 42.999h10v2h-10z" transform="matrix(.6 -.8 .8 .6 -22.4 43.207)"/></svg>