<svg id="Capa_1" enable-background="new 0 0 512 512" height="512" viewBox="0 0 512 512" width="512" xmlns="http://www.w3.org/2000/svg"><g><g><path d="m45.614 252.538h-37.37c-4.204 0-7.611-3.403-7.611-7.601s3.408-7.601 7.611-7.601h37.37c4.204 0 7.611 3.403 7.611 7.601s-3.407 7.601-7.611 7.601z" fill="#fca863"/></g><g><path d="m45.614 391.245h-38.003c-4.204 0-7.611-3.403-7.611-7.601s3.408-7.601 7.611-7.601h38.002c4.204 0 7.611 3.403 7.611 7.601.001 4.198-3.406 7.601-7.61 7.601z" fill="#fca863"/></g><g><path clip-rule="evenodd" d="m450.925 204.361v213.476c0 4.267-1.055 8.301-2.923 11.848-2.456 4.693-6.333 8.544-11.031 10.956-3.512 1.834-7.49 2.858-11.701 2.858h-353.996c-2.791 0-5.47-.446-7.987-1.287-5.267-1.733-9.793-5.149-12.94-9.598-2.974-4.186-4.729-9.284-4.729-14.777v-213.476c0-14.108 11.559-25.662 25.656-25.662h353.996c14.116 0 25.655 11.554 25.655 25.662z" fill="#fcd79f" fill-rule="evenodd"/></g><g><path clip-rule="evenodd" d="m71.275 197.466v194.885c0 12.787 15.046 23.247 27.819 23.247h351.832v-27.471c-.029 0-.086 0-.144 0h-329.393c-14.355 0-26.121-11.753-26.121-26.121v-183.305h-23.993z" fill="#fac574" fill-rule="evenodd"/></g><g><path d="m95.268 317.394h-87.657c-4.204 0-7.611-3.403-7.611-7.601s3.408-7.601 7.611-7.601h87.656c4.204 0 7.611 3.403 7.611 7.601.001 4.198-3.407 7.601-7.61 7.601z" fill="#fca863"/></g><g><path clip-rule="evenodd" d="m440.253 362.006c0 14.368-11.766 26.121-26.15 26.121h36.679.144c14.326-.086 26.006-11.81 26.006-26.121l-26.006-16.753-10.673-6.897z" fill="#fac574" fill-rule="evenodd"/></g><g><path d="m137.281 394.517-73.994 47.696c-5.267-1.733-9.793-5.149-12.94-9.598.335-.314.71-.608 1.116-.872l77.566-50.007c3.532-2.27 8.241-1.257 10.524 2.27 2.275 3.528 1.26 8.23-2.272 10.511z" fill="#fca863"/></g><g><path d="m448.002 429.686c-2.456 4.693-6.333 8.544-11.031 10.956l-71.589-46.125c-3.532-2.28-4.547-6.983-2.263-10.51 2.273-3.527 6.992-4.541 10.524-2.27l74.014 47.706c.122.071.234.152.345.243z" fill="#fca863"/></g><g><path clip-rule="evenodd" d="m476.936 149.186v212.818c0 2.888-.477 5.676-1.36 8.27-3.481 10.348-13.305 17.848-24.793 17.848h-329.395c-11.326 0-21.038-7.318-24.631-17.463-.964-2.706-1.492-5.625-1.492-8.655v-212.818c0-.294.01-.598.02-.892v-.061c.507-13.895 12.067-25.135 26.102-25.135h329.395c14.382 0 26.154 11.757 26.154 26.088z" fill="#fcd79f" fill-rule="evenodd"/></g><g><path clip-rule="evenodd" d="m440.253 183.557v154.799l10.673 6.897 26.006 16.753v-208.535l-36.679 26.868z" fill="#fac574" fill-rule="evenodd"/></g><path d="m476.936 353.044v8.96c0 2.888-.477 5.676-1.36 8.27l-149.794-96.679-28.69 21.01c-1.472 1.064-2.659 1.976-3.654 2.747-4.08 3.142-7.063 4.713-10.037 4.713-2.984 0-5.957-1.571-10.037-4.723-.995-.76-2.182-1.682-3.633-2.736l-25.778-18.892-147.196 94.945c-.964-2.706-1.492-5.625-1.492-8.655v-8.473l135.546-87.436-95.164-69.679-40.382-29.524.02-18.598v-.061c.426.203.852.446 1.248.74l48.115 35.179 134.084 98.189c1.066.78 2.73 2.047 3.765 2.838.538.416 1.279.416 1.817.01 1.035-.801 2.71-2.068 3.775-2.858l99.589-72.922c3.39-2.483 8.16-1.753 10.646 1.642 2.476 3.385 1.746 8.138-1.644 10.622l-57.766 42.294z" fill="#fca863"/><g><path clip-rule="evenodd" d="m432.802 68.5c43.727 0 79.198 35.402 79.198 79.109 0 43.678-35.471 79.109-79.198 79.109-43.756 0-79.198-35.431-79.198-79.109 0-43.707 35.442-79.109 79.198-79.109z" fill="#bcea73" fill-rule="evenodd"/></g><g><path clip-rule="evenodd" d="m409.183 72.063c22.698 7.069 41.023 24.08 49.855 45.92 3.711 9.138 5.725 19.138 5.725 29.626 0 6.063-.662 11.954-1.956 17.644-6.3 27.5-26.927 49.569-53.623 57.874 7.451 2.328 15.391 3.592 23.618 3.592 43.727 0 79.198-35.431 79.198-79.109 0-43.707-35.471-79.109-79.198-79.109-8.228-.001-16.168 1.235-23.619 3.562z" fill="#99d53b" fill-rule="evenodd"/></g><g><path d="m422.988 177.969c-1.749 0-3.507-.599-4.942-1.823l-19.562-16.696c-3.195-2.728-3.572-7.526-.84-10.717 2.73-3.192 7.533-3.568 10.731-.84l13.79 11.77 34.235-39.795c2.737-3.183 7.542-3.549 10.733-.813 3.188 2.736 3.552 7.535.813 10.719l-39.181 45.546c-1.504 1.751-3.634 2.649-5.777 2.649z" fill="#f8f6f6"/></g></g></svg>