<?xml version="1.0" encoding="UTF-8" standalone="no"?>
<!-- Created with Inkscape (http://www.inkscape.org/) -->

<svg
   version="1.1"
   id="svg5658"
   xml:space="preserve"
   width="682.66669"
   height="682.66669"
   viewBox="0 0 682.66669 682.66669"
   xmlns="http://www.w3.org/2000/svg"
   xmlns:svg="http://www.w3.org/2000/svg"><defs
     id="defs5662"><clipPath
       clipPathUnits="userSpaceOnUse"
       id="clipPath5672"><path
         d="M 0,512 H 512 V 0 H 0 Z"
         id="path5670" /></clipPath></defs><g
     id="g5664"
     transform="matrix(1.3333333,0,0,-1.3333333,0,682.66667)"><g
       id="g5666"><g
         id="g5668"
         clip-path="url(#clipPath5672)"><g
           id="g5674"
           transform="translate(264.3115,224.9785)"><path
             d="m 0,0 c -0.003,-8.19 -4.388,-15.757 -11.482,-19.85 l -53.691,-30.97 c -7.095,-4.092 -15.834,-4.089 -22.925,0.008 l -53.667,31.013 c -7.091,4.099 -11.446,11.668 -11.443,19.859 v 61.983 c 0.004,8.19 4.388,15.757 11.483,19.85 l 53.69,30.97 c 7.095,4.092 15.834,4.089 22.926,-0.009 L -11.443,81.843 C -4.351,77.745 0.004,70.175 0,61.984 Z M 36.611,109.562 -65.088,168.33 c -7.091,4.098 -15.83,4.102 -22.925,0.009 l -101.745,-58.691 c -7.095,-4.092 -11.49,-11.659 -11.493,-19.849 V -27.66 c -0.003,-8.191 4.341,-15.76 11.432,-19.859 l 101.699,-58.768 c 7.092,-4.098 15.831,-4.102 22.926,-0.009 l 101.745,58.691 c 7.095,4.092 11.49,11.659 11.493,19.849 V 89.703 c 0.003,8.191 -4.341,15.76 -11.433,19.859"
             style="fill:#01c1fa;fill-opacity:1;fill-rule:nonzero;stroke:none"
             id="path5676" /></g><g
           id="g5678"
           transform="translate(300.9229,334.54)"><path
             d="m 0,0 -101.699,58.769 c -7.092,4.097 -15.831,4.101 -22.926,0.008 L -125.429,58.313 -24.519,0 c 7.092,-4.098 11.436,-11.668 11.433,-19.858 v -117.459 c -0.003,-8.191 -4.398,-15.757 -11.493,-19.85 l -100.94,-58.226 0.788,-0.456 c 7.092,-4.097 15.831,-4.1 22.926,-0.008 l 101.744,58.69 c 7.095,4.093 11.491,11.659 11.494,19.85 V -19.858 C 11.436,-11.668 7.092,-4.098 0,0"
             style="fill:#0290cf;fill-opacity:1;fill-rule:nonzero;stroke:none"
             id="path5680" /></g><g
           id="g5682"
           transform="translate(264.3115,224.9785)"><path
             d="m 0,0 c -0.003,-8.19 -4.388,-15.757 -11.482,-19.85 l -53.691,-30.97 c -7.095,-4.092 -15.834,-4.089 -22.925,0.008 l -53.667,31.013 c -7.091,4.099 -11.446,11.668 -11.443,19.859 v 61.983 c 0.004,8.19 4.388,15.757 11.483,19.85 l 53.69,30.97 c 7.095,4.092 15.834,4.089 22.926,-0.009 L -11.443,81.843 C -4.351,77.745 0.004,70.175 0,61.984 Z M 36.611,109.562 -65.088,168.33 c -7.091,4.098 -15.83,4.102 -22.925,0.009 l -101.745,-58.691 c -7.095,-4.092 -11.49,-11.659 -11.493,-19.849 V -27.66 c -0.003,-8.191 4.341,-15.76 11.432,-19.859 l 101.699,-58.768 c 7.092,-4.098 15.831,-4.102 22.926,-0.009 l 101.745,58.691 c 7.095,4.092 11.49,11.659 11.493,19.849 V 89.703 c 0.003,8.191 -4.341,15.76 -11.433,19.859 z"
             style="fill:none;stroke:#000000;stroke-width:15;stroke-linecap:round;stroke-linejoin:round;stroke-miterlimit:10;stroke-dasharray:none;stroke-opacity:1"
             id="path5684" /></g><g
           id="g5686"
           transform="translate(127.0166,399.9307)"><path
             d="M 0,0 H 240.899"
             style="fill:none;stroke:#000000;stroke-width:15;stroke-linecap:round;stroke-linejoin:round;stroke-miterlimit:10;stroke-dasharray:none;stroke-opacity:1"
             id="path5688" /></g><g
           id="g5690"
           transform="translate(7.5,399.9307)"><path
             d="M 0,0 H 89.517"
             style="fill:none;stroke:#000000;stroke-width:15;stroke-linecap:round;stroke-linejoin:round;stroke-miterlimit:10;stroke-dasharray:none;stroke-opacity:1"
             id="path5692" /></g><g
           id="g5694"
           transform="translate(286.8496,112.0693)"><path
             d="M 0,0 H 81.066"
             style="fill:none;stroke:#000000;stroke-width:15;stroke-linecap:round;stroke-linejoin:round;stroke-miterlimit:10;stroke-dasharray:none;stroke-opacity:1"
             id="path5696" /></g><g
           id="g5698"
           transform="translate(7.5,112.0693)"><path
             d="M 0,0 H 249.349"
             style="fill:none;stroke:#000000;stroke-width:15;stroke-linecap:round;stroke-linejoin:round;stroke-miterlimit:10;stroke-dasharray:none;stroke-opacity:1"
             id="path5700" /></g><g
           id="g5702"
           transform="translate(312.3838,445.7471)"><path
             d="m 0,0 v -89.953 -226.65 -62.891"
             style="fill:none;stroke:#000000;stroke-width:15;stroke-linecap:round;stroke-linejoin:round;stroke-miterlimit:10;stroke-dasharray:none;stroke-opacity:1"
             id="path5704" /></g><g
           id="g5706"
           transform="translate(63.0327,445.7471)"><path
             d="M 0,0 V -379.494"
             style="fill:none;stroke:#000000;stroke-width:15;stroke-linecap:round;stroke-linejoin:round;stroke-miterlimit:10;stroke-dasharray:none;stroke-opacity:1"
             id="path5708" /></g><g
           id="g5710"
           transform="translate(492.6602,385.1973)"><path
             d="M 0,0 C 15.786,-15.787 15.786,-41.383 0,-57.17 L -12.006,-69.175 -69.175,-12.006 -57.17,0 C -41.383,15.787 -15.787,15.787 0,0"
             style="fill:#fe7ab7;fill-opacity:1;fill-rule:nonzero;stroke:none"
             id="path5712" /></g><g
           id="g5714"
           transform="translate(492.6592,385.1973)"><path
             d="M 0,0 C -1.548,1.548 -3.192,2.938 -4.91,4.183 2.797,-7.882 -1.451,-27.24 -15.69,-41.479 l -12.005,-12.005 15.69,-15.691 12.006,12.005 C 15.787,-41.383 15.787,-15.787 0,0"
             style="fill:#fe3d97;fill-opacity:1;fill-rule:nonzero;stroke:none"
             id="path5716" /></g><g
           id="g5718"
           transform="translate(492.6602,385.1973)"><path
             d="M 0,0 C 15.786,-15.787 15.786,-41.383 0,-57.17 L -12.006,-69.175 -69.175,-12.006 -57.17,0 C -41.383,15.787 -15.787,15.787 0,0 Z"
             style="fill:none;stroke:#000000;stroke-width:15;stroke-linecap:round;stroke-linejoin:round;stroke-miterlimit:10;stroke-dasharray:none;stroke-opacity:1"
             id="path5720" /></g><g
           id="g5722"
           transform="translate(404.833,354.5391)"><path
             d="m 0,0 -131.299,-131.298 -24.396,-68.469 c -2.901,-8.14 4.956,-15.998 13.097,-13.096 l 68.469,24.396 131.298,131.298 z"
             style="fill:#ffdfcf;fill-opacity:1;fill-rule:nonzero;stroke:none"
             id="path5724" /></g><g
           id="g5726"
           transform="translate(444.9111,314.1465)"><path
             d="m 0,0 -131.298,-131.298 -62.002,-30.863 c -1.192,-0.593 -2.327,-0.922 -3.393,-1.065 0.236,-6.532 6.868,-11.68 13.704,-9.245 l 68.468,24.397 131.298,131.298 z"
             style="fill:#ffcebf;fill-opacity:1;fill-rule:nonzero;stroke:none"
             id="path5728" /></g><g
           id="g5730"
           transform="translate(273.5342,223.2412)"><path
             d="m 0,0 c 23.201,4.145 32.729,-5.384 28.585,-28.584 23.201,4.144 32.729,-5.385 28.585,-28.585 l 131.298,131.298 -57.169,57.169 z"
             style="fill:#fe9738;fill-opacity:1;fill-rule:nonzero;stroke:none"
             id="path5732" /></g><g
           id="g5734"
           transform="translate(330.7656,166.4473)"><path
             d="M 0,0 130.923,130.923 114.146,147.699 -7.093,26.461 C -0.018,22.352 2.345,13.528 0,0"
             style="fill:#fe7701;fill-opacity:1;fill-rule:nonzero;stroke:none"
             id="path5736" /></g><g
           id="g5738"
           transform="translate(257.6299,178.6045)"><path
             d="m 0,0 -8.492,-23.832 c -2.901,-8.141 4.956,-15.998 13.097,-13.097 l 23.832,8.492 z"
             style="fill:#596c76;fill-opacity:1;fill-rule:nonzero;stroke:none"
             id="path5740" /></g><g
           id="g5742"
           transform="translate(248.5288,150.9756)"><path
             d="m 0,0 c 0.162,-5.3 4.536,-9.697 9.826,-9.904 1.16,-0.009 2.359,0.174 3.567,0.604 L 37.457,-0.726 24.874,11.857 3.083,1.01 C 2.005,0.474 0.976,0.162 0,0"
             style="fill:#465a61;fill-opacity:1;fill-rule:nonzero;stroke:none"
             id="path5744" /></g><g
           id="g5746"
           transform="translate(286.0674,150.167)"><path
             d="M 0,0 -28.437,28.437"
             style="fill:none;stroke:#000000;stroke-width:15;stroke-linecap:round;stroke-linejoin:round;stroke-miterlimit:10;stroke-dasharray:none;stroke-opacity:1"
             id="path5748" /></g><g
           id="g5750"
           transform="translate(404.833,354.5391)"><path
             d="m 0,0 -131.299,-131.298 c 23.201,4.145 32.73,-5.384 28.585,-28.584 L 28.584,-28.584 Z"
             style="fill:#fdb97e;fill-opacity:1;fill-rule:nonzero;stroke:none"
             id="path5752" /></g><g
           id="g5754"
           transform="translate(381.8242,274.3613)"><path
             d="M 0,0 -79.705,-79.704"
             style="fill:none;stroke:#000000;stroke-width:15;stroke-linecap:round;stroke-linejoin:round;stroke-miterlimit:10;stroke-dasharray:none;stroke-opacity:1"
             id="path5756" /></g><g
           id="g5758"
           transform="translate(433.417,325.9551)"><path
             d="M 0,0 -27.105,-27.106"
             style="fill:none;stroke:#000000;stroke-width:15;stroke-linecap:round;stroke-linejoin:round;stroke-miterlimit:10;stroke-dasharray:none;stroke-opacity:1"
             id="path5760" /></g><g
           id="g5762"
           transform="translate(273.5342,223.2412)"><path
             d="m 0,0 c 23.201,4.145 32.729,-5.384 28.585,-28.584 23.201,4.144 32.729,-5.385 28.585,-28.585"
             style="fill:none;stroke:#000000;stroke-width:15;stroke-linecap:round;stroke-linejoin:round;stroke-miterlimit:10;stroke-dasharray:none;stroke-opacity:1"
             id="path5764" /></g><g
           id="g5766"
           transform="translate(489.5908,324.4961)"><path
             d="m 0,0 -57.632,57.632 c -7.555,7.555 -19.803,7.555 -27.357,0 -7.555,-7.555 -7.555,-19.803 0,-27.358 l 57.632,-57.631 c 7.554,-7.555 19.802,-7.555 27.357,0 C 7.554,-19.803 7.555,-7.555 0,0"
             style="fill:#d8ecfe;fill-opacity:1;fill-rule:nonzero;stroke:none"
             id="path5768" /></g><g
           id="g5770"
           transform="translate(489.5908,324.4961)"><path
             d="m 0,0 -16.31,16.31 c 5.828,-5.828 4.426,-16.675 -3.128,-24.23 -7.554,-7.554 -18.402,-8.955 -24.229,-3.128 l 16.31,-16.309 c 7.553,-7.555 19.802,-7.554 27.357,0 C 7.554,-19.803 7.554,-7.555 0,0"
             style="fill:#b3dafe;fill-opacity:1;fill-rule:nonzero;stroke:none"
             id="path5772" /></g><g
           id="g5774"
           transform="translate(489.5908,324.4961)"><path
             d="m 0,0 -57.632,57.632 c -7.555,7.555 -19.803,7.555 -27.357,0 -7.555,-7.555 -7.555,-19.803 0,-27.358 l 57.632,-57.631 c 7.554,-7.555 19.802,-7.555 27.357,0 C 7.554,-19.803 7.555,-7.555 0,0 Z"
             style="fill:none;stroke:#000000;stroke-width:15;stroke-linecap:round;stroke-linejoin:round;stroke-miterlimit:10;stroke-dasharray:none;stroke-opacity:1"
             id="path5776" /></g><g
           id="g5778"
           transform="translate(404.833,354.5391)"><path
             d="m 0,0 -131.299,-131.298 -24.396,-68.469 c -2.901,-8.14 4.956,-15.998 13.097,-13.096 l 68.469,24.396 131.298,131.298 z"
             style="fill:none;stroke:#000000;stroke-width:15;stroke-linecap:round;stroke-linejoin:round;stroke-miterlimit:10;stroke-dasharray:none;stroke-opacity:1"
             id="path5780" /></g></g></g></g></svg>
