<?xml version="1.0" encoding="UTF-8"?>
<svg id="Layer_1" data-name="Layer 1" xmlns="http://www.w3.org/2000/svg" xmlns:xlink="http://www.w3.org/1999/xlink" viewBox="0 0 946.232 785.727">
  <defs>
    <style>
      .cls-1 {
        fill: url(#linear-gradient);
      }

      .cls-1, .cls-2 {
        opacity: .22;
      }

      .cls-3 {
        fill: #00a6a2;
      }

      .cls-4 {
        fill: #007ea2;
      }

      .cls-5, .cls-6 {
        fill: #006660;
      }

      .cls-7 {
        fill: #fefefe;
      }

      .cls-8 {
        fill: #fcc3ab;
      }

      .cls-9 {
        fill: #fd7622;
      }

      .cls-10 {
        fill: #f30002;
      }

      .cls-11 {
        fill: #fdfdfd;
      }

      .cls-12 {
        fill: #a20002;
      }

      .cls-13 {
        fill: #b3b3b3;
      }

      .cls-14 {
        fill: #85a1b2;
      }

      .cls-15 {
        fill: #bdd1d9;
      }

      .cls-16 {
        fill: #dceef6;
      }

      .cls-17 {
        fill: #da9c8f;
      }

      .cls-18 {
        fill: #d5cfc9;
      }

      .cls-19 {
        fill: #24242f;
      }

      .cls-20 {
        fill: #115075;
      }

      .cls-21 {
        fill: #6e444d;
      }

      .cls-22 {
        fill: gray;
      }

      .cls-23 {
        fill: #570006;
      }

      .cls-24 {
        fill: #637687;
      }

      .cls-25 {
        fill: #491e1d;
      }

      .cls-26 {
        fill: #334c61;
      }

      .cls-27 {
        fill: #597285;
      }

      .cls-28 {
        fill: #598596;
      }

      .cls-29 {
        fill: #4a87a0;
      }

      .cls-30 {
        fill: #266787;
      }

      .cls-31 {
        fill: #4c88a2;
      }

      .cls-2 {
        fill: #7ac943;
      }

      .cls-6 {
        opacity: .78;
      }
    </style>
    <linearGradient id="linear-gradient" x1="367.866" y1="388.837" x2="371.441" y2="112.312" gradientUnits="userSpaceOnUse">
      <stop offset="0" stop-color="#fcee21"/>
      <stop offset=".015" stop-color="#f9ed21" stop-opacity=".989"/>
      <stop offset=".281" stop-color="#cce02d" stop-opacity=".817"/>
      <stop offset=".521" stop-color="#a8d636" stop-opacity=".681"/>
      <stop offset=".728" stop-color="#8fcf3d" stop-opacity=".582"/>
      <stop offset=".895" stop-color="#7fca41" stop-opacity=".522"/>
      <stop offset="1" stop-color="#7ac943" stop-opacity=".5"/>
    </linearGradient>
  </defs>
  <g>
    <path class="cls-13" d="m640.059,514.593c3.416-14.135,6.546-28.339,9.963-42.474,2.849-11.785,8.451-16.256,20.518-16.439,11.826-.179,23.657-.107,35.485-.146l1.213-.176s-.021-.133-.021-.133c.332-.016.665-.032.997-.048,23.291-.032,46.583-.064,69.874-.096,18.016-.01,36.033-.02,54.049-.029,5.025-.012,10.051-.024,15.077-.035.963-.016,1.927-.031,2.89-.047,2.377.174,4.754.349,7.13.523.65,1.685,1.492,3.323,1.922,5.063,7.706,31.213,15.361,62.438,23.027,93.661.316,1.055,2.209,9.56,2.708,10.932.068.277.149.549.245.817.26,1.621.488,3.247.784,4.861,2.873,15.68,10.911,30.678,6.251,47.353-.337.968-.674,1.935-1.01,2.903-.351.338-.702.675-1.053,1.013-2.011,1.634-4.023,3.267-6.034,4.901-3.333,2.331-6.667,4.662-10,6.994-2.572,2.365-5.144,4.73-8.284,7.618,1.417.568,2.455.984,3.492,1.4.348.686.697,1.372,1.045,2.058,1.988,7.335,30.029,114.858,35.846,137.204.164.631.111,1.318.159,1.978-.142.475-.284.95-.426,1.426-10.621-.153-21.242-.306-31.864-.46-2.629-11.925-5.195-23.863-7.898-35.77-4.731-20.84-14.271-63.109-14.549-63.341-2.283-10.088-4.566-20.175-6.934-30.637h-201.138c-1.764,10.302-3.508,20.482-5.251,30.662.034.367-11.389,66.373-17.134,99.009-8.851.112-17.702.225-26.547.338,1.527-9.154,17.675-110.116,18.535-115.845,1.652-11.006,1.666-22.724,14.275-28.119-2.686-3.328-4.94-6.12-7.195-8.913-.505-3.086-1.289-6.157-1.453-9.261-.269-5.078-.954-10.336-.009-15.237,2.339-12.132,5.501-24.105,8.333-36.142.354-1.94.709-3.881,1.063-5.821,3.281-13.699,6.656-27.378,9.747-41.12m211.068-7.973c-3.245-13.711-6.596-27.399-9.655-41.151-.709-3.188-2.111-4.275-5.136-3.655-15.401.022-30.801.044-46.202.066-26.669-.03-53.338-.059-80.008-.089-10.317-.078-20.635-.246-30.951-.204-6.812.028-10.213,2.876-11.74,9.704-1.778,7.949-3.442,15.925-4.998,23.92-.612,3.144-.801,6.369-1.183,9.558-3.341,15.303-6.683,30.605-10.024,45.908-.666,3.63-1.331,7.26-1.997,10.89-.33.731-.788,1.432-.971,2.198-2.575,10.775-5.276,21.523-7.589,32.354-1.161,5.436-2.099,11.013-2.237,16.549-.169,6.774,3.272,11.018,7.942,11.017,70.875-.011,141.75-.046,212.626-.075,1.309,2.006,15.687-19.224,14.006-28.829-2.258-12.903-6.353-25.484-9.659-38.203-3.064-12.748-6.128-25.497-9.189-38.238-1.011-3.907-2.022-7.814-3.033-11.721Z"/>
    <path class="cls-27" d="m573.812,409.267c17.505,1.518,34.974,1.461,52.383-1.196,0,9.977,0,19.953,0,30.408h-9.881c-13.728-.04-27.456-.081-41.184-.121-.351,0-.702,0-1.052,0-32.314.005-64.628.009-96.942.014-5.021.01-10.042.02-15.063.031-.889-.092-1.779-.185-2.668-.277-9.397-.021-18.795-.042-28.192-.063-.364.115-.728.231-1.093.346-12.297-.101-24.593-.202-36.89-.303-9.806.023-19.612.046-29.418.069-.193.234-4.369.189-5.701.213-1.324-.019-2.649-.039-3.973-.058-1.023,0-2.045.002-3.068.003-25.491-.046-50.982-.131-76.473-.13-36.488.002-72.977.067-109.465.104-.685-.002-1.37-.004-2.055-.005-1.986.005-11.33,0-12.021.001-1.303-.008-2.605-.015-3.908-.023-14.018-.009-28.036-.018-42.054-.028-.327-.031-.654-.061-.981-.091l-1.011.038c-9.333.001-18.667.002-28,.004-1.351.032-2.701.064-4.052.095-3.964-.012-7.929-.024-11.893-.035-19.621-.063-39.241-.126-58.862-.189-.099-2.669-.197-5.337-.296-8.006.004-1.666.008-3.332.012-4.998.002-2,.005-4.001.007-6.001,0-2.333,0-4.667,0-7,.08-.609.161-1.218.241-1.827,3.325-.097,6.649-.277,9.974-.278,185.078-.009,370.156,0,555.233-.028,2.781,0,5.563-.438,8.344-.671Z"/>
    <path class="cls-22" d="m924.917,433.999c-.361,2.324-.722,4.648-1.083,6.972-1.148,7.7-2.297,15.399-3.445,23.099-.334,1.335-.667,2.669-1.001,4.004-1.017,7.332-2.033,14.664-3.05,21.995-.478,2.976-.956,5.951-1.434,8.927-.846,5.04-1.692,10.08-2.538,15.119-.345,2.986-.691,5.972-1.036,8.957-1.047,4.614-1.891,9.285-3.18,13.829-3.351,11.811-9.669,16.689-22.044,17.352l-3.922-.036c-7.666-31.223-15.322-62.448-23.027-93.661-.43-1.74-1.272-3.378-1.922-5.063-.213-.122-.263-.292-.149-.51.282-.299.565-.597.847-.896,1.161-3.302,2.322-6.603,3.483-9.905.251-1.363,2.569-8.769,3.477-11.11,2.286-7.298,4.63-14.579,6.847-21.898,5.126-16.919,10.072-33.894,15.335-50.77,2.358-7.562,5.588-14.853,7.91-22.425,2.929-9.553,5.335-19.266,7.966-28.91,3.805-11.669,10.517-20.635,22.866-24.165,2.337-.668,4.853-.71,7.286-1.04.667.013,1.335.026,2.002.039.613.202,1.212.474,1.84.596,10.916,2.13,9.675,7.651,8.622,15.538-.49,3.671-1.955,13.035-2.286,14.035-.935,5.718-1.901,11.432-2.782,17.158-.193,1.255-3.819,26.532-4.117,29.877-.328,1.322-2.808,14.971-3.098,15.965-.849,5.914-1.72,11.824-2.53,17.744"/>
    <path class="cls-26" d="m928.424,412.07c-.36,1.668-.72,3.336-1.079,5.004"/>
    <path class="cls-15" d="m573.812,409.267c-2.781.233-5.563.67-8.344.671-185.078.028-370.156.019-555.233.028-3.325,0-6.649.181-9.974.277-.083-10.844-.074-18.328-.157-29.172.094-1.595,0-5,0-5,.611.088,42.561.007,60,0,1.308,7.133,1.792,12.225,2.933,19.384.336,2.109,2.147,3.657,4.283,3.632,11.946-.142,23.894-.139,35.842-.189q7.671.339,9.627-6.825c.086-.313.248-.605.375-.907,10.698-.018,21.397.082,32.093-.089,10.43-.167,20.863-.487,31.277-1.047,1.95-.105,3.822-1.66,5.73-2.546-6.945-.333-13.285.236-19.635.377-16.013.356-32.031.525-48.047.73-.426.005-.858-.441-1.286-.677.891-2.319,1.781-4.637,2.672-6.956,8.769-2.284,17.299-6.443,26.337-6.696,6.801-.191,11.706-.217,17.801-.191,1.516.007,3.645.763,4.965,1.895,4.829,4.138,10.577,5.343,16.853,6.337v-10.122c2.633-9.038,5.318-18.061,7.844-27.129.384-1.378.47-3.149-.069-4.412-1.455-3.406-3.94-6.462-4.921-9.964-4.79-17.107-9.122-34.341-13.822-51.473-2.407-8.773-5.245-17.427-7.888-26.135-1.367-5.676-2.733-11.353-4.1-17.029-.268-.391-1.863-6.36-1.887-6.961-4.218-16.242-8.421-32.489-12.661-48.725-2.606-9.976-5.43-19.897-7.854-29.916-1.719-7.103-.427-8.683,6.626-9.541.174,2.144.049,4.364.575,6.418,2.963,11.565,6.098,23.087,9.147,34.63,13.129,49.718,26.191,99.453,39.449,149.137,1.485,5.564,2.232,12.077,9.568,13.615-4.137,10.931-4.853,17.36-2.906,25.129,2.761,11.017,6.936,14.329,18.026,14.308,3.429-.007,6.857-.001,10.286-.001.078.52.056.375.135.895-3.412,1.047-6.825,2.094-10.239,3.14-.808,2.828-1.614,5.657-2.689,9.429h-25.351l-.035.381c5.374.265,10.747.53,16.121.796,4.629.053,9.259.105,13.888.158,13.938.391,27.875.873,41.815,1.123,4.623.083,9.258-.663,13.886-.634,20.494.127,40.988.537,61.481.52,5.145-.004,10.289-1.212,15.433-1.867,3.591-.348,7.174-.834,10.773-1.017,8.297-.422,16.605-.639,24.902-1.061,3.617-.184,7.251-.476,10.817-1.074,2.928-.49,3.827-4.638,1.697-7.169.05-.291.069-.407.119-.698.873-.447,1.745-.893,2.618-1.34,2.276-.549,4.456-1.075,6.732-1.624,7.202.122,14.651-2.549,21.525,1.162,7.332,3.958,15.087,4.223,23.046,3.763-.542,3.479,1.536,4.525,4.461,4.985,18.914,2.977,37.794,6.176,56.739,8.941,11.608,1.694,23.304,2.799,34.972,4.062,7.866.851,15.753,1.516,23.63,2.264Z"/>
    <path class="cls-6" d="m847.214,455.016c-5.026.012-10.052.024-15.077.035.984-6.519,2.279-13.008,2.886-19.562,1.282-13.839,2.389-27.699,3.221-41.572.842-14.033,1.415-28.086,1.834-42.139.499-16.779.701-33.566,1.047-50.35.319-15.451,1.695-30.972.665-46.332-.844-12.59-4.596-24.978-6.926-37.481-.526-2.822-.534-6.668-.76-9.545.28.142,2.985,5.761,4.027,7.994l.925,2.131c-.08.352,5.158,13.332,7.264,18.908.216.476,4.286,14.605,6.028,20.924.672,2.025,1.343,4.05,2.015,6.075-.164.308.617,2.958.945,3.965.323,1.333.646,2.667.968,4,.336,3.333.671,6.666,1.007,9.999.365,1.335,1.029,6.669.996,8,.515,4.025,1.031,8.05,1.546,12.075.07,1.309-1.048,27.357-1.741,39.068-.252,4.254-.583,8.51-1.071,12.743-1.198,10.399-2.557,20.779-3.756,31.177-.848,7.356-1.529,14.731-2.308,22.096-.876,8.283-2.633,29.536-2.617,31.882-.374,5.302-.747,10.604-1.121,15.906Z"/>
    <path class="cls-4" d="m831.997,203.363c.754,1.576,1.509,3.152,2.263,4.729-.071.296-.048.597-.056.902.226,2.877.134,5.802.66,8.624,2.329,12.503,6.082,24.891,6.926,37.481,1.029,15.36-.347,30.88-.665,46.332-.346,16.783-.548,33.571-1.047,50.35-.418,14.053-.992,28.106-1.834,42.139-.832,13.872-1.939,27.733-3.221,41.572-.607,6.553-1.902,13.043-2.886,19.562-18.016.01-36.033.02-54.049.029-.968-1.926-1.851-3.901-2.917-5.771-13.354-23.411-26.663-46.849-40.139-70.191-7.407-12.83-15.106-25.492-23.067-38.892-1.643,1.507-2.732,2.505-3.822,3.504-1.686.966-3.593,1.681-5.02,2.94-7.141,6.304-14.136,12.774-21.224,19.138-4.212,3.782-8.587,7.385-12.736,11.232-6.375,5.912-12.075,12.723-19.069,17.752-7.349,5.285-15.884,8.921-23.9,13.277-17.41,2.657-34.878,2.714-52.383,1.196-7.878-.748-15.764-1.413-23.63-2.264-11.668-1.263-23.364-2.368-34.972-4.062-18.944-2.764-37.825-5.964-56.739-8.941-2.925-.461-5.003-1.506-4.461-4.985-.249-2.289-.499-4.578-.748-6.867,7.619-.34,15.235-.762,22.857-1.001,13.113-.411,26.228-.768,39.345-1.04,19.955-.414,39.92-.509,59.864-1.217,7.406-.263,14.956-1.168,22.078-3.109,4.859-1.325,10.518-3.886,13.385-7.717,35.009-46.782,69.486-93.962,104.292-140.897,10.165-13.707,24.03-20.695,41.288-20.026,3.926.152,7.814,1.274,11.72,1.95.345.322.689.645,1.033.968.423.12.846.24,1.268.361-.434-.109-.869-.217-1.303-.326-.323-.344-.647-.689-.97-1.033-1.238-1.068-2.385-2.272-3.73-3.183-11.762-7.965-13.264-13.786-7.193-29.108,1.15-2.904,2.527-5.718,3.8-8.573,1.824-1.118,3.527-2.565,5.496-3.292,5.831-2.153,11.767-4.023,17.662-6.003,3.235,1.825,6.547,3.529,9.687,5.506,4.418,2.781,8.709,5.765,13.055,8.662,1.378,1.04,2.757,2.08,4.135,3.119,0,0-.055-.055-.054-.055.374.321.747.642,1.121.962l2.103,1.954c.311.297.622.595.933.892.687.701,1.374,1.402,2.061,2.103,1.259,1.401,2.518,2.802,3.777,4.202,0,0-.05-.049-.05-.05.739.934,1.479,1.868,2.218,2.801l.032.05c.293.379.586.758.878,1.138,0,0-.059-.07-.058-.069.371.56.741,1.12,1.112,1.679.299.417.597.834.896,1.251.363.684,1.726,2.805,2.051,3.188.352.613.703,1.225,1.055,1.838.964,1.764,1.928,3.528,2.892,5.292Z"/>
    <path class="cls-22" d="m891.104,621.071c4.66-16.675-2.309-34.563-5.183-50.243-.296-1.614-.524-3.241-.784-4.861.334.057.643-.006.928-.19,9.03-.352,16.552,1.984,20.159,11.303l.126.583c.814,13.849-3.975,26.083-10.377,37.851-.422.776-.951,1.488-1.581,2.108-1.055,1.039-2.51,3.159-3.288,3.451Z"/>
    <path class="cls-11" d="m923.834,440.971c.361-2.324.722-4.648,1.083-6.972"/>
    <path class="cls-11" d="m911.33,523.073c.345-2.986.691-5.972,1.036-8.957"/>
    <path class="cls-11" d="m927.344,417.074c.36-1.668.72-3.336,1.079-5.004"/>
    <path class="cls-11" d="m811.031,176.187c-1.378-1.04-2.757-2.079-4.135-3.119"/>
    <path class="cls-11" d="m861.415,444.182c-.665-.814-1.329-1.628-1.994-2.442"/>
    <path class="cls-11" d="m919.388,468.074c.334-1.335.667-2.669,1.001-4.004"/>
    <path class="cls-11" d="m820.971,186.246c-1.259-1.401-2.518-2.802-3.777-4.202"/>
    <path class="cls-11" d="m831.997,203.363c-.964-1.764-1.928-3.528-2.892-5.292.964,1.764,1.928,3.528,2.892,5.292Z"/>
    <path class="cls-11" d="m933.284,377.073c.29-.994.58-1.988.87-2.982-.29.994-.58,1.988-.87,2.982Z"/>
    <path class="cls-11" d="m823.139,188.997c-.739-.934-1.478-1.868-2.218-2.801.739.934,1.478,1.868,2.218,2.801Z"/>
    <path class="cls-11" d="m935.105,283.904c-.667-.013-1.335-.026-2.002-.039"/>
    <path class="cls-11" d="m839.057,218.196l-.925-2.131.925,2.131Z"/>
    <path class="cls-11" d="m825.103,191.795c-.371-.56-.741-1.12-1.112-1.679.37.56.741,1.12,1.112,1.679Z"/>
    <path class="cls-11" d="m812.097,177.094c-.373-.321-.747-.642-1.121-.962.373.321.747.642,1.121.962Z"/>
    <path class="cls-11" d="m906.225,577.084c.143.211.311.412.413.642"/>
    <path class="cls-11" d="m834.26,208.092c.248.425.496.851.744,1.276"/>
    <path class="cls-11" d="m857.933,454.087c-.282.299-.565.597-.847.896.283-.299.565-.597.847-.896Z"/>
    <path class="cls-11" d="m824.05,190.185c-.293-.379-.586-.759-.878-1.138.293.379.586.759.878,1.138Z"/>
    <path class="cls-11" d="m815.132,179.94c-.311-.297-.622-.595-.933-.892.311.297.622.595.933.892Z"/>
    <path class="cls-10" d="m639.104,518.071c0,2-.739,4.825-1.216,6.947-3.092,13.742-6.466,27.421-9.747,41.119-5.04,1.607-10.08,3.215-15.12,4.822-2.604.377-5.198.945-7.815,1.093-7.208.407-13.9,2.324-19.979,6.266-1.464.139-2.98.079-4.383.448-9.42,2.479-18.823,5.024-28.218,7.594-25.201,6.893-50.399,13.797-75.589,20.731-3.819,1.051-6.449,3.488-6.947,7.514-1.412,11.431-2.69,22.879-3.959,34.326-1.169,10.54-2.223,21.093-3.391,31.634-1.514,13.665-3.096,27.322-4.637,40.983-1.188,10.535-2.381,21.07-3.528,31.61-1.164,10.702-2.273,21.41-3.406,32.116-10.66.027-21.32.054-31.981.081,1.031-14.338,2.073-28.676,3.088-43.016.385-5.442.702-10.889,1.06-16.333.857-13.02,1.721-26.039,2.582-39.058.105-.332.095-.66-.027-.985.063-4.474.008-8.953.212-13.42.542-11.827,1.198-23.649,1.808-35.473.078-.996.155-1.992.233-2.988l2.774-32.017c.092-.293.199-.582.318-.865.571-.762,14.603-29.819,27.871-37.205,1.101-.399,2.202-.798,3.303-1.198.286-.089,75.931-21.716,102.888-28.152,23.952-5.719,49.791-11.112,73.805-16.574Z"/>
    <path class="cls-12" d="m451.169,785.275c1.133-10.705,2.242-21.414,3.406-32.116,1.146-10.54,2.34-21.075,3.528-31.61,1.541-13.662,3.123-27.319,4.637-40.983,1.168-10.54,2.222-21.093,3.391-31.634,1.269-11.448,2.547-22.896,3.959-34.326.497-4.026,3.127-6.463,6.947-7.514,25.19-6.933,50.388-13.837,75.589-20.731,9.396-2.57,18.798-5.115,28.218-7.594,1.403-.369,2.919-.309,4.383-.449-.989,1.697-1.825,3.509-2.995,5.071-3.637,4.854-6.572,9.845-6.171,16.298.694,11.157,5.184,20.675,11.999,29.28-5.624,1.054-11.269,2.003-16.866,3.184-10.74,2.265-21.453,4.661-32.299,7.029.502,2.176.838,3.801,1.253,5.407,3.595,13.894,7.205,27.784,10.81,41.675.073.325.146.65.219.976,3.488,14.348,6.996,28.69,10.458,43.044,4.435,18.386,8.832,36.781,13.246,55.173-5.895-.041-11.791-.081-17.686-.122-1.232-9.17-2.139-18.398-3.768-27.497-2.857-15.955-6.184-31.826-9.265-47.741-4.428-22.871-8.811-45.751-13.189-68.501-7.13-.277-15.83,6.006-16.807,12.742-1.732,11.938-2.81,23.973-4.04,35.979-1.147,11.194-2.045,22.414-3.216,33.605-1.514,14.471-3.65,28.895-4.572,43.4-.372,5.857,1.756,11.872,2.746,17.815-17.972.046-35.943.093-53.915.139Z"/>
    <path class="cls-13" d="m363.683,784.102c.05-3.048.101-6.096.151-9.142-.019-22.928-.039-45.858-.058-68.789-.01-6.571-.019-13.142-.029-19.71.066-2.324.188-4.652.189-6.979.025-47.629.06-95.258.041-142.887-.013-32.806-.107-65.613-.165-98.419,9.806-.023,19.612-.046,29.418-.07-.024,58.492-.041,116.985-.077,175.477-.013,21.495-.073,42.991-.112,64.486-.008,2.687-.017,5.374-.025,8.062.106.347.212.693.318,1.04-.067,1.82-.19,3.64-.192,5.46-.026,30.85-.036,61.699-.05,92.549-9.665.04-19.329.081-28.995.12-.139-.4-.277-.8-.415-1.199Z"/>
    <path class="cls-13" d="m103.961,764.159c-.018,5.991-.092,11.981-.141,17.971-.247,1.023-.495,2.046-.743,3.069-9.228.094-18.456.189-27.684.283.124-.172.174-.363.15-.573.182-.955.523-1.91.524-2.866.024-30.061-.979-231.244-.979-289.866,0-1.662-.084-3.325-.129-4.986.048-16.329.095-32.659.143-48.987,9.334,0,18.667-.001,28-.003.261.629.523,1.258.785,1.888.086,9.943.171,19.887.257,29.83,0,.383,0,.766.001,1.148-.02,21.335-.04,42.67-.06,64.005-.085,1.651-.242,3.303-.243,4.954-.013,29.559-.027,59.117.005,88.676.01,9.456.155,18.913.239,28.369.017,9.699-.049,81.456-.126,107.088Z"/>
    <path class="cls-23" d="m505.084,785.136c-.99-5.943-3.119-11.959-2.746-17.815.922-14.505,3.058-28.929,4.572-43.4,1.171-11.191,2.069-22.411,3.216-33.605,1.23-12.007,2.308-24.042,4.04-35.979.977-6.736,9.677-13.02,16.807-12.742,4.378,22.75,8.762,45.63,13.189,68.501,3.081,15.916,6.408,31.786,9.265,47.741,1.629,9.099,2.536,18.327,3.768,27.497-17.37-.066-34.74-.131-52.11-.197Z"/>
    <path class="cls-14" d="m905.906,785.676c.142-.476.284-.951.426-1.426.298.493.595.985.892,1.477-.439-.017-.879-.034-1.318-.051Z"/>
    <path class="cls-15" d="m321.499,39.237c1.197-.917,2.031-2.523,2.626-3.979,6.946-16.989,18.66-28.844,36.715-33.494,15.638-4.028,30.163-1.082,43.468,8.07.897.617,1.927,1.426,2.96,2.134,1.29.884,2.455,1.945,3.48,3.126,1.979,2.28,3.996,4.217,5.599,6.965,2.534,4.346,4.757,8.874,7.018,13.379.998,1.989,1.813,4.063,2.401,6.209.77,2.81,2.016,6.372,2.337,9.424,1.13,10.721-2.829,20.585-5.07,24.136-13.915-5.504-28.458-7.292-43.291-7.077-6.611.096-13.316.028-19.802,1.1-12.995,2.148-25.777,5.578-38.714,8.072-2.063-2.148-4.126-4.296-6.19-6.444-1.77-8.674-3.635-9.338-10.636-3.82-.497.392-1.141.593-1.702.909-6.708,3.776-13.433,7.525-20.116,11.345-10.951,6.26-21.881,12.557-32.809,18.856-24.551,14.152-49.088,28.328-73.649,42.462-1.338.77-3.39.572-4.526-.472-2.995-2.754-3.434-6.543-4.43-10.106,20.818-11.536,41.669-23.015,62.445-34.626,15.871-8.87,31.673-17.865,47.459-26.887,7.074-4.043,40.373-26.178,44.426-29.282Z"/>
    <path class="cls-8" d="m713.116,190.962c-2.353-6.357-4.707-12.714-7.059-19.069.896-6.302,1.792-12.605,2.737-19.258-.699.362-.904.398-.969.513-.735,1.289-1.391,2.626-2.176,3.883-5.41,8.669-11.093,16.972-22.571,18.215-.719.078-1.261,1.789-1.885,2.74-2.706-.333-5.411-.665-8.117-.999-.969-8.757-4.649-16.16-10.179-23.041-2.027-2.522-2.331-6.72-2.666-10.226-.324-3.394-.899-4.515-4.787-3.859-8.131,1.372-9.291-.465-7.611-8.63,1.732-8.417,2.935-16.943,4.37-25.421,2.072-1.368,4.144-2.737,6.216-4.105-.316-.726-.632-1.453-.948-2.179-3.401.605-6.802,1.211-10.203,1.816-1.379-5.881-2.801-11.752-4.118-17.647-.606-2.711-1.008-5.468-1.503-8.203,8.052.304,16.103.609,24.1.911,4.026,5.891,7.909,12.943,13.133,18.797,4.5,5.042,11.072,8.427,7.57,17.622,4.334-.936,7.337-1.584,10.594-2.288-.539-9.957,1.882-18.06,12.107-21.604,3.823,1.077,6.612,3.299,7.92,7.159.107.965.018,2.005.35,2.885,3.805,10.072,2.363,18.808-6.255,25.899-1.525,1.255-2.718,2.913-4.924,5.324,9.339-1.154,12.868-6.725,15.654-13.156,1.009-2.33,2.116-4.618,3.178-6.925.684,6.19,1.556,12.367,1.97,18.575.202,3.033.858,4.8,4.212,5.467,3.656.727,7.085,2.599,10.742,3.323,6.277,1.244,12.467,4.382,19.096,1.578,1.692,4.355,3.383,8.711,5.075,13.066-3.818,2.585-7.637,5.17-11.456,7.755-2.141,1.182-4.477,2.11-6.39,3.586-11.789,9.097-23.482,18.317-35.207,27.497Zm-9.981-76.671c2.652,1.964,3.923,3.563,5.468,3.899,2.471.537,4.473-.955,3.627-3.61-.556-1.745-2.26-3.552-3.917-4.317-.703-.324-2.605,1.953-5.178,4.028Zm3.537-10.297c.608.08,1.216.16,1.825.24,1.25-2.221,2.684-4.369,3.608-6.718.206-.523-1.378-1.751-2.138-2.655-1.598,2.081-3.345,4.075-4.679,6.313-.292.491.884,1.857,1.383,2.82Z"/>
    <path class="cls-25" d="m709.15,88.929c-10.225,3.544-12.646,11.647-12.107,21.604-3.257.703-6.26,1.352-10.594,2.288,3.502-9.194-3.07-12.579-7.57-17.622-5.225-5.854-9.107-12.906-13.133-18.797-7.996-.302-16.048-.606-24.1-.911,0,0-.219.084-.22.087-.43-.121-.859-.245-1.288-.369-9.775-1.965-16.008-8.363-20.732-16.616-1.222-2.135-2.306-4.35-3.453-6.528-.03-.998-.061-1.996-.091-2.995,2.651.722,5.309,1.417,7.95,2.173,2.747.787,5.477,1.635,9.341,2.794-2.887-4.845-5.039-8.455-7.516-12.611,4.923.3,9.219.562,13.515.824,7.854-2.506,15.763-4.854,23.551-7.554,13-4.506,25.819-9.56,38.914-13.762,9.012-2.892,18.359-4.558,27.469.231-2.971,7.374-6.116,14.684-8.855,22.143-1.983,5.401-3.785,10.921-5.018,16.531-1.408,6.409-1.939,13.005-3.159,19.461-.619,3.275-1.914,6.422-2.904,9.627Z"/>
    <path class="cls-21" d="m647.267,101.341c3.401-.605,6.802-1.211,10.203-1.816.316.726.632,1.453.948,2.179-2.072,1.368-4.144,2.737-6.216,4.105-1.645-1.489-3.29-2.979-4.935-4.468Z"/>
    <path class="cls-8" d="m640.138,75.209c.429.124.857.248,1.288.369-.428-.125-.858-.247-1.288-.369Z"/>
    <path class="cls-14" d="m217.232,388.166c3.412-1.047,6.825-2.094,10.237-3.141.027-.298.054-.597.081-.895-3.501,0-7.001-.006-10.502.001-11.091.021-15.265-3.29-18.026-14.308-1.947-7.769-1.231-14.198,2.906-25.129-7.336-1.538-8.083-8.051-9.568-13.615-13.258-49.683-26.32-99.419-39.449-149.137-3.048-11.544-6.183-23.065-9.147-34.63-.526-2.053-.401-4.273-.575-6.418.572-.27,1.143-.539,1.716-.808,4.137.619,8.272,1.239,12.407,1.859,3.905.585,7.799,1.257,11.717,1.734,4.758.579,9.535.995,14.304,1.481,1.822.644,3.598,1.553,5.476,1.885,7.451,1.315,14.931,2.474,22.407,3.646,13.512,2.118,27.018,4.28,40.551,6.255,3.827.559,6.494,1.88,7.556,5.966,1.745,6.709,3.911,13.308,5.739,19.997,4.024,14.72,7.947,29.467,11.912,44.203,3.465,14.526,6.763,29.094,10.441,43.566,3.755,14.775,8.008,29.423,11.791,44.192,1.636,6.388,2.719,12.924,3.894,19.421.567,3.136-1.231,4.565-4.206,4.755-10.388.664-20.77,1.478-31.167,1.944-11.26.505-22.538.602-33.799,1.099-1.513.067-3.731,1.05-4.33,2.252-4.533,9.098-2.621,17.747,2.776,25.8.971,1.448,3.102,2.119,4.698,3.149,1.238.679,2.475,1.359,3.712,2.038,1.715.561,3.397,1.442,5.151,1.624,5.253.546,10.536.787,15.803,1.21,3.599.289,7.124.753,6.339,5.843-9.312.71-18.624,1.42-27.936,2.13-7.508.648-15.017,1.296-22.525,1.945l-.384.088Zm-15.118-229.044c-16.799-2.338-33.598-4.675-51.084-7.109.987,4.558,1.673,8.416,2.665,12.193,5.1,19.405,10.236,38.801,15.442,58.179,8.133,30.272,16.281,60.539,24.534,90.778,2.331,8.54,2.508,8.484,11.281,7.978,1.163-.067,2.332-.017,3.499-.018,14.496-.021,28.993-.012,43.489-.104,1.749-.011,3.494-.573,5.241-.879h38.12c-.347-3.004-.347-5.293-.9-7.441-4.715-18.295-9.548-36.56-14.31-54.843-7.564-29.041-15.051-58.103-22.769-87.103-.474-1.782-2.519-4.215-4.123-4.462-16.995-2.609-34.048-4.837-51.085-7.169Zm38.049,225.749c0-.17-.001-.341-.002-.511h-4.066c0,.17.001.341.002.511h4.066Z"/>
    <path class="cls-2" d="m36.176,271.942c-.177-.777-.353-1.555-.304-1.339,7.498-2.561,14.862-5.077,22.226-7.592.159,1.443.319,2.887.465,4.211-1.763.938-3.62,1.877-5.385,2.964-.133.082.383,1.22.598,1.868,8.523,3.161,17.047,6.322,25.847,9.586q.636-6.975-5.685-10.891l.169-4.687c1.386.334,2.772.667,4.831,1.163,0-2.957,0-5.476,0-7.996.298-.29.596-.579.893-.869,1.326-.292,2.869-.243,3.943-.93,6.81-4.356,13.522-8.865,20.243-13.358.454-.304.723-.884,1.214-1.508-1.009-.354-1.623-.57-2.236-.788-.733-1.966-1.467-3.929-2.201-5.892,8.469-5.218,16.908-10.487,25.426-15.623,2.348-1.416,3.857-.542,3.878,2.289.016,2.162-.108,4.325-.17,6.487-.943,2.075-2.818,4.233-2.643,6.21.416,4.699-1.889,7.688-5.071,10.206-4.41,3.49-8.988,6.789-13.675,9.898-3.268,2.168-6.839,3.879-10.275,5.795.031.447.062.894.094,1.341,3.875.719,7.75,1.438,12.051,2.237-.471,1.564-.889,2.949-1.306,4.333-7.545,7.257-16.484,9.643-26.507,6.882-1.308,5.691.095,8.865,5.64,9.281,1.611.121,3.207.45,4.806.709,5.936.964,9.685,4.811,12.595,10.099-6.321-1.439-12.643-2.878-18.573-4.229,0,3.555,0,6.404,0,9.254-1.129-2.795-2.259-5.59-3.386-8.38-19.887,8.148-20.792,8.307-36.584,6.528-1.383-.483-2.766-.966-4.7-1.642,6.473-7.28,15.392-5.072,21.953-7.81-9.388-5.935-18.78-11.873-28.172-17.81Z"/>
    <path class="cls-22" d="m183.334,145.159c-4.769-.486-9.547-.902-14.304-1.481-3.918-.477-7.812-1.148-11.717-1.733.12-1.864.24-3.729.36-5.594,3.165-2.107,6.331-4.213,9.496-6.32.571,2.042.959,4.157,1.749,6.11,1.9,4.694,4.992,5.744,9.376,3.22,23.837-13.72,47.652-27.478,71.481-41.214,10.928-6.299,21.858-12.596,32.809-18.856,6.683-3.82,13.408-7.569,20.116-11.345.561-.316,1.205-.517,1.702-.908,7.001-5.518,8.865-4.854,10.636,3.821-1.756.908-3.548,1.752-5.262,2.733-29.08,16.644-58.114,33.37-87.241,49.933-12.973,7.377-26.128,14.432-39.201,21.633Z"/>
    <path class="cls-2" d="m91.655,212.302c5.321-7.483,10.577-14.863,15.821-22.252,2.596-3.658,4.499-2.351,5.014,1.13.548,3.698,1.004,7.748.07,11.264-2.84,10.687-8.812,19.235-19.139,24.164-.736.351-1.503.707-2.113,1.228-.606.518-1.031,1.246-.791.944-4.696-6.686-9.845-13.229-14.076-20.318-2.828-4.738-4.811-10.135-6.212-15.489-.496-1.897,1.286-5.481,3.07-6.54,1.443-.857,4.86.338,6.686,1.633,5.922,4.199,7.629,11.036,9.826,17.466.791,2.313,1.295,4.724,1.844,6.771Z"/>
    <path class="cls-2" d="m78.938,259.229c-7.138-4.779-14.741-9.01-21.254-14.527-4.478-3.793-8.664-8.732-8.413-15.553,6.812-1.507,12.27,1.859,17.807,4.945,6.858,6.719,11.25,14.733,12.753,24.266-.298.29-.596.579-.893.869Z"/>
    <path class="cls-2" d="m86.801,242.2c-4.563-2.649-9.126-5.298-13.689-7.946-3.506-3.157-7.013-6.315-10.637-9.579,4.163-3.252,11.962-1.813,17.162.932,6.092,3.217,9.642,8.427,13.431,13.637-.746.59-1.615,1.085-2.185,1.814-.257.328.083,1.122.152,1.705-.877.163-1.754.327-2.632.489-.535-.351-1.069-.702-1.603-1.053Z"/>
    <path class="cls-18" d="m157.674,136.352c-.12,1.865-.24,3.73-.36,5.594-4.136-.621-8.271-1.241-12.407-1.86,2.301-5.889,5.569-6.845,12.767-3.734Z"/>
    <path class="cls-2" d="m90.884,241.058c.57-.729,1.438-1.224,2.185-1.814,3.91,1.952,6.221.223,7.726-3.359.733,1.963,1.467,3.926,2.2,5.891-1.107.181-2.214.36-3.322.538-1.175.201-2.349.403-3.523.605-1.704-.052-5.522-1.534-5.266-1.862Z"/>
    <path class="cls-3" d="m704.426,221.184c2.307-3.033,4.614-6.066,6.921-9.1,6.292-6.173,12.583-12.344,18.875-18.516,1.517-1.295,3.013-2.616,4.554-3.882,8.734-7.171,17.478-14.329,26.219-21.491-1.272,2.855-2.649,5.669-3.8,8.573-6.071,15.322-4.569,21.143,7.193,29.108,1.345.911,2.491,2.115,3.73,3.183,0,0-.029.031-.029.031-3.906-.676-7.794-1.798-11.72-1.95-17.258-.669-31.123,6.318-41.288,20.026-34.806,46.935-69.283,94.115-104.292,140.897-2.867,3.831-8.526,6.392-13.385,7.717-7.122,1.942-14.672,2.846-22.078,3.109-19.944.708-39.909.803-59.864,1.217-13.116.272-26.232.629-39.345,1.04-7.622.239-15.238.661-22.857,1.001.283-8.088.434-16.184.98-24.254.09-1.336,1.817-3.55,2.939-3.649,4.109-.365,8.289-.123,12.431.101,6.766.366,13.522.898,20.283,1.36,9.781-.194,19.563-.398,29.344-.58,21.451-.399,42.901-.941,64.354-1.105,8.954-.068,16.177-3.167,21.888-9.972,2.2-2.967,4.401-5.935,6.601-8.902,2.639-2.902,5.321-5.766,7.91-8.713,13.707-15.605,27.389-31.233,41.083-46.85,16.036-18.289,34.473-34.796,43.352-58.398Z"/>
    <path class="cls-3" d="m707.9,454.017c.081-36.762.162-73.524.243-110.286,1.089-.999,2.178-1.997,3.822-3.504,7.961,13.4,15.66,26.061,23.067,38.892,13.475,23.342,26.784,46.78,40.139,70.191,1.067,1.87,1.949,3.845,2.917,5.771-23.292.032-46.583.064-69.874.096-.104-.387-.209-.773-.314-1.16Z"/>
    <path class="cls-8" d="m485.923,355.427c-5.436-.386-10.871-.788-16.313-1.082-4.142-.224-8.321-.466-12.431-.101-1.122.1-2.849,2.314-2.939,3.649-.545,8.068-.697,16.162-.98,24.248,0,.004,0,.009,0,.013.246,2.254.491,4.508.737,6.762.006.054-.035.102-.089.105-7.924.451-15.645.172-22.946-3.769-6.972-3.764-14.536-.962-21.834-1.17-.016,0-.032-.006-.046-.014-2.855-1.734-4.99-.879-6.699,1.503l-2.365,1.492c-1.943.402-3.886.804-5.828,1.206-.004,0-.009.002-.014.002-5.007.296-10.014.592-15.021.888-.069.004-.118-.064-.093-.128,1.012-2.57,2.086-5.147-.199-7.34l-2.573-5.064c-.077-.484-.153-.968-.229-1.452-.002-.012-.001-.024.001-.036.416-1.794.831-3.588,1.286-5.553.01-.045-.012-.092-.055-.109-1.667-.675-2.003-.519-4.191-1.405-.06-.024-1.043-1.951-1-2l4.986-5.388c.01-.012.024-.021.039-.026,9.495-3.376,18.804-7.525,28.546-9.877,7.661-1.85,15.831-1.589,24.199-2.245.102-.008.118-.155.022-.189-3.928-1.392-7.57-2.51-11.055-3.996-8.279-3.532-16.052-1.6-23.647,1.987-5.733,2.707-11.339,5.683-17.001,8.541-.047.024-.108.002-.132-.046-1.718-3.406-.415-5.48,2.585-7.667,4.09-2.983,7.656-6.685,11.446-10.08.01-.009.022-.016.035-.02,4.53-1.428,9.023-2.995,13.608-4.22,2.072-.553,4.491-1.031,6.472-.498,10.191,2.739,20.199,6.319,31.005,5.624.006,0,.012,0,.017,0,1.942.3,3.944.392,5.816.936,8.029,2.334,16.018,4.802,24.022,7.221.003,0,.006.002.01.002,4.94.939,9.879,1.878,14.819,2.817.011.002.021.006.03.011h0c-1.087,3.51-.917,2.959-2.004,6.469Zm-78.849,22.36c5.969-.75,11.939-1.5,17.908-2.25.051-.006.088-.053.082-.105l-.198-1.635c-.006-.052-.054-.089-.107-.082l-18.581,2.671s-.008.001-.011.002c-7.617,2.073-15.234,4.146-22.85,6.219-.051.014-.08.066-.066.117l.579,1.995c.015.05.067.079.118.064,7.704-2.331,15.407-4.663,23.111-6.994.005-.002.01-.003.016-.003Zm-28.861-9.179c16.221-7.776,33.282-11.948,51.256-12.191-18.593-2.415-35.328,3.152-51.256,12.191Zm6.31,6.721c4.328-1.56,8.605-3.287,12.998-4.636,4.577-1.405,9.216-2.734,13.922-3.557,3.896-.682,7.9-.748,11.869-1.014l.034-1.641c-14.221-1.291-26.738,4.467-38.824,10.848Z"/>
    <path class="cls-19" d="m760.995,168.195c-8.741,7.162-17.485,14.32-26.219,21.491-1.541,1.266-3.037,2.587-4.555,3.879-.755-.504-1.509-1.004-2.263-1.505,2.527-2.396,4.952-4.913,7.602-7.166,7.804-6.633,15.698-13.162,23.556-19.731,1.446-.757,2.95-1.422,4.33-2.286,6.921-4.337,14.31-6.718,22.576-5.612-.622.546-1.245,1.091-1.868,1.636-5.896,1.979-11.832,3.848-17.663,6.002-1.969.727-3.671,2.174-5.496,3.292Z"/>
    <path class="cls-29" d="m769.088,210.092c.434.109.869.217,1.303.326-.423-.12-.846-.24-1.268-.361l-.035.035Z"/>
    <path class="cls-29" d="m769.123,210.057c-.344-.323-.689-.645-1.033-.968,0,0,.029-.03.029-.031.323.344.647.688.97,1.033,0,0,.034-.034.034-.034Z"/>
    <path class="cls-19" d="m709.15,88.929c.99-3.205,2.285-6.352,2.904-9.627,1.22-6.457,1.751-13.053,3.159-19.461,1.232-5.61,3.034-11.13,5.018-16.531,2.739-7.459,5.884-14.769,8.855-22.143,4.309.385,9.024-.228,12.858,1.328,16.722,6.789,25.927,20.035,28.134,37.499,1.671,13.222,1.552,26.67,2.229,40.018-1.961,8.354-3.92,16.707-5.879,25.06-1.401,4.345-2.802,8.689-4.203,13.034-.378.319-.757.637-1.135.956,0,0,.005-.003.005-.003-6.63,2.805-12.819-.334-19.096-1.578-3.656-.724-7.085-2.596-10.742-3.323-3.354-.667-4.01-2.434-4.212-5.467-.414-6.208-1.286-12.385-1.97-18.575-.695-5.801-1.869-11.33-8.004-14.027-1.308-3.86-4.097-6.082-7.92-7.159Z"/>
    <path class="cls-22" d="m856.831,634.035c-70.875.029-141.75.064-212.626.075-4.67,0-8.111-4.242-7.942-11.017.138-5.536,1.076-11.113,2.237-16.549,2.313-10.831,5.014-21.58,7.589-32.354.183-.766.641-1.467.971-2.197,7.582-.619,15.154-1.6,22.746-1.79,21.425-.537,42.859-.706,64.288-1.107,12.945-.242,25.886-.756,38.832-.956,27.918-.432,55.839-.741,83.758-1.098,1.497-.019,2.995-.025,4.492-.038,3.306,12.719,7.402,25.3,9.659,38.203,1.681,9.605.162,19.446-5.856,27.885-2.717.315-5.433.629-8.15.943Z"/>
    <path class="cls-12" d="m861.178,567.004c-1.497.012-2.995.018-4.492.038-27.919.358-55.84.666-83.758,1.098-12.946.2-25.886.714-38.832.956-21.429.401-42.863.57-64.288,1.107-7.592.19-15.164,1.171-22.746,1.79.665-3.631,1.331-7.261,1.997-10.891,2.421-.536,4.873-.961,7.259-1.625,33.995-9.458,67.981-18.949,101.969-28.432,9.583,6.135,20.237,7.8,31.305,7.02,11.828-.833,23.625-2.107,35.436-3.189,2.69-.595,5.379-1.189,8.069-1.784,4.7-1.253,9.401-2.507,14.101-3.76,1.596-.191,3.193-.383,4.789-.574,3.064,12.748,6.128,25.497,9.191,38.245Z"/>
    <path class="cls-3" d="m825.028,534.877c-11.811,1.082-23.608,2.356-35.436,3.189-11.068.779-21.722-.886-31.307-7.02-.848-.757-1.59-1.704-2.559-2.243-9.242-5.138-18.319-10.636-27.859-15.153-6.916-3.275-14.459-5.226-21.722-7.767.317-10.136.61-20.273.983-30.407.04-1.095.541-2.173.828-3.259,26.669.029,53.338.059,80.008.087,12.355,20.857,24.71,41.715,37.065,62.573Z"/>
    <path class="cls-10" d="m706.145,505.883c7.263,2.541,14.807,4.492,21.722,7.767,9.54,4.518,18.617,10.015,27.859,15.153.969.539,1.711,1.485,2.559,2.243-33.987,9.483-67.973,18.973-101.968,28.432-2.386.664-4.837,1.089-7.259,1.625,3.341-15.303,6.683-30.605,10.024-45.908,3.1-.545,6.213-1.026,9.299-1.647,12.592-2.532,25.176-5.107,37.763-7.665Z"/>
    <path class="cls-22" d="m620.206,632.6c-7.735.057-15.493.471-23.195-.006-3.047-.189-5.971-2.358-8.952-3.626-6.816-8.606-11.306-18.124-12-29.281-.401-6.453,2.534-11.444,6.171-16.298,1.17-1.562,2.006-3.375,2.995-5.071,6.079-3.941,12.772-5.858,19.98-6.265,2.617-.148,5.211-.716,7.816-1.092,4.686.333,9.371.666,14.056.998-2.832,12.037-5.994,24.01-8.333,36.142-.945,4.901-.26,10.159.009,15.237.164,3.104.948,6.175,1.453,9.261Z"/>
    <path class="cls-4" d="m825.028,534.877c-12.355-20.858-24.71-41.716-37.065-62.574,15.4-.021,30.801-.043,46.201-.066.645,5.202,2.012,10.435,1.801,15.603-.618,15.098-1.867,30.17-2.868,45.253-2.69.595-5.379,1.189-8.069,1.784Z"/>
    <path class="cls-5" d="m833.097,533.093c1.002-15.082,1.713-55.654,1.068-60.856,3.026-.619,4.428.468,5.137,3.656,3.06,13.752,6.41,27.44,9.656,41.151-1.435.117-2.871.235-5.576.455,1.397,4.332,2.607,8.082,3.816,11.833-4.7,1.253-9.401,2.507-14.101,3.76Z"/>
    <path class="cls-5" d="m847.197,529.333c-1.21-3.751-2.419-7.501-3.816-11.833,2.705-.221,4.141-.338,5.576-.455,1.01,3.907,2.021,7.814,3.031,11.717-1.598.188-3.194.379-4.791.571Z"/>
    <path class="cls-21" d="m627.078,571.959c-4.685-.333-9.371-.665-14.056-.998,5.039-1.608,10.079-3.216,15.119-4.823-.354,1.941-.709,3.881-1.063,5.821Z"/>
    <path class="cls-15" d="m707.9,454.017c.105.387.209.773.313,1.16-.332.016-.665.032-.997.049.228-.403.456-.806.684-1.208Z"/>
    <path class="cls-14" d="m706.025,455.534c.404-.059.809-.117,1.213-.176-.404.059-.809.117-1.213.176Z"/>
    <path class="cls-13" d="m431.031,589.073c.002-1.334.004-2.668.006-4.002.007-13,.014-25.999.022-38.999-.002-5.667-.004-11.334-.006-17.001v-8.999c.004-5.334.007-10.668.01-16.001-.002-2-.005-3.999-.007-5.999,0-.667-.002-1.334-.003-2.001.008-18.333.016-36.666.023-54.999-.008-.668-.017-1.336-.025-2.004.054-.334.108-.669.162-1.003,9.397.021,18.795.042,28.192.063.038,2.645.077,5.291.115,7.936-.068,38.652-.137,77.303-.205,115.955-.069.659-.138,1.319-.207,1.978-13.268,7.387-27.668,37.018-28.004,37.576"/>
    <path class="cls-17" d="m71.05,438.3c-3.965-.012-7.93-.024-11.894-.036,3.965.012,7.929.024,11.894.036Z"/>
    <path class="cls-17" d="m151.056,438.304c-1.303-.008-2.606-.016-3.909-.023,1.303.008,2.606.016,3.909.023Z"/>
    <path class="cls-16" d="m575.13,438.359c-.175.381-.351.762-.526,1.143-.176-.381-.351-.762-.526-1.143.351,0,.702,0,1.053,0Z"/>
    <path class="cls-29" d="m59.01,373.023c-1.613-9.391-3.212-18.785-4.844-28.174-1.489-8.565-3.05-17.118-4.511-25.687-.907-5.322-1.688-10.665-2.525-15.999,1.764-.394,3.527-1.121,5.292-1.128,11.961-.05,23.924.052,35.885.106-.301.749-.96,1.555-.852,2.239,2.663,16.88,5.348,33.756,8.153,50.613,2.438,14.649,5.029,29.272,7.552,43.906-11.968.05-23.937.047-35.904.19-2.695.032-3.796-.969-4.22-3.632-1.141-7.16-2.559-14.275-3.867-21.408-.053-.341-.106-.683-.16-1.024Z"/>
    <path class="cls-22" d="m103.162,398.899c-2.523-14.634-5.114-29.258-7.552-43.906-2.806-16.856-5.491-33.733-8.153-50.613-.108-.685.55-1.49.849-2.239.231-.076.459-.164.682-.264h38.393c-2.481,13.079-4.93,24.989-6.941,36.973-1.169,6.965-1.681,14.044-2.402,21.08-.452,4.411-.742,8.838-1.104,13.258-.027.074-1.211,6.744-.967,7.771-.891,2.319-1.781,4.637-2.672,6.956-.044,1.084-.088,2.168-.131,3.251-.127.302-.29.594-.375.907q-1.957,7.164-9.627,6.825Z"/>
    <path class="cls-14" d="m379.009,389.168c5.058-.299,10.117-.598,15.175-.898,1.966-.126,3.933-.251,5.9-.376,1.981,2.54,1.062,6.545-1.812,7.027-3.567.597-7.2.89-10.817,1.074-8.297.422-16.605.638-24.902,1.061-3.599.183-7.183.669-10.773,1.017-1.406-.244-2.819-.724-4.219-.691-6.159.145-12.314.437-18.47.677-.603-1.942-1.206-3.883-1.809-5.825,17.243-1.021,34.486-2.042,51.728-3.064Z"/>
    <path class="cls-27" d="m115.966,380.959c-.244-1.028.381-1.86.137-2.887,5.63-1.214,10.391-2.624,16.021-3.839,14.72-4.704,29.582-4.3,44.559-1.413,1.644.317,3.488-.402,5.239-.64,0,3.125,0,6.249,0,10.123-6.276-.994-12.024-2.199-16.853-6.337-1.321-1.131-2.991-2.617-4.507-2.623-6.095-.026-12.318-.204-18.259.92-8.883,1.681-17.568,4.412-26.337,6.696Z"/>
    <path class="cls-26" d="m329.09,398.056c6.156-.239,12.312-.532,18.47-.677,1.4-.033,2.813.447,4.219.691-5.145.655-10.289,1.862-15.433,1.867-20.493.017-40.987-.393-61.481-.52-4.627-.029-9.263.717-13.886.634-13.941-.25-27.877-.732-41.815-1.123-.015-.683-.031-1.366-.047-2.049,13.132.376,26.262.881,39.397,1.092,14.154.228,28.313.218,42.47.24,9.368.014,18.737-.099,28.106-.155Z"/>
    <path class="cls-27" d="m113.163,391.166c.044-1.084.088-2.168.131-3.251.429.236.861.682,1.287.677,16.016-.205,32.034-.374,48.047-.73,6.35-.141,12.69-.71,19.635-.377-1.908.886-3.78,2.441-5.73,2.546-10.415.56-20.847.88-31.277,1.047-10.695.171-21.395.071-32.093.089Z"/>
    <path class="cls-28" d="m219.118,396.88c.016.683.031,1.366.047,2.049-4.63-.053-9.259-.105-13.889-.156.024-.392.049-.785.074-1.179h9.191c1.075-3.772,1.881-6.601,2.689-9.429.002.001.386-.087.389-.087.501,2.934,1,5.868,1.499,8.802Z"/>
    <path class="cls-14" d="m205.35,397.594c-.025.393-.05.787-.074,1.179-5.373-.267-10.746-.532-16.12-.797.012-.127.023-.254.035-.381h16.159Z"/>
    <path class="cls-18" d="m402.064,386.042c1.766-2.74,3.993-3.822,7.04-1.96-2.347.654-4.694,1.307-7.04,1.96Z"/>
    <path class="cls-18" d="m400.084,387.893c-1.967.125-3.933.25-5.9.376,1.973-.407,3.945-.815,5.918-1.223.002.282-.004.565-.018.847Z"/>
    <path class="cls-9" d="m158.966,236.038c-.268-.39-.537-.781-.805-1.172.268.39.537.781.805,1.172Z"/>
    <path class="cls-30" d="m786.022,157.265c-8.266-1.106-15.655,1.275-22.576,5.612-1.379.864-2.883,1.529-4.33,2.285-1.468-1.762-2.935-3.522-4.403-5.283,3.819-2.585,7.638-5.17,11.456-7.755,5.226-.683,10.438-1.74,15.681-1.93,4.151-.151,5.605,2.796,4.171,7.071Z"/>
    <path class="cls-8" d="m761.089,139.061c.378-.319.757-.637,1.135-.956-.378.319-.757.637-1.135.956Z"/>
    <path class="cls-29" d="m754.713,159.879c1.467,1.761,2.935,3.521,4.403,5.283-7.858,6.571-15.752,13.099-23.556,19.732-2.65,2.252-5.074,4.77-7.601,7.166-4.059,3.912-8.021,7.935-12.247,11.658-1.078.95-2.995.948-4.526,1.383-2.199-5.1-1.641-9.825,1.929-14.139,11.725-9.18,23.419-18.4,35.208-27.497,1.913-1.476,4.25-2.405,6.39-3.586Z"/>
    <path class="cls-17" d="m681.192,177.986c.624-.951,1.166-2.662,1.885-2.74,11.478-1.243,17.161-9.545,22.571-18.215.785-1.257,1.441-2.594,2.176-3.883.065-.115.27-.151.969-.513-.945,6.653-1.841,12.957-2.737,19.258-4.913,1.352-9.803,2.794-14.745,4.031-3.336.836-6.744,1.384-10.12,2.062Z"/>
    <path class="cls-26" d="m711.186,205.101c1.531-.435,3.448-.434,4.526-1.383,4.226-3.723,8.188-7.746,12.247-11.658.754.501,1.508,1.001,2.263,1.505-6.291,6.174-12.583,12.346-18.875,18.519-.054-2.327-.107-4.655-.161-6.982Z"/>
    <path class="cls-11" d="m347.114,82.871c-4.4-.44-9.007-1.018-14.653-2.366-4.724-1.127-8.595-2.416-11.356-3.434,10.597-2.267,28.158-6.075,38.838-7.84,6.486-1.072,13.19-1.004,19.802-1.1,14.833-.215,29.375,1.573,43.291,7.077-4.917,1.688-9.753,3.785-14.704,5.297-.491.15-2.618.732-5.142,1.309-4.681,1.072-12.097,2.403-22.085,2.758-6.534-.07-20.426-.344-33.99-1.7Z"/>
    <path class="cls-21" d="m717.07,96.088c6.135,2.698,7.309,8.226,8.004,14.027-1.062,2.307-2.169,4.595-3.178,6.925-2.786,6.431-6.315,12.001-15.654,13.156,2.206-2.411,3.399-4.069,4.924-5.324,8.617-7.091,10.06-15.828,6.255-25.899-.333-.88-.244-1.919-.35-2.885Z"/>
    <path class="cls-21" d="m703.135,114.292c2.573-2.075,4.475-4.352,5.178-4.028,1.658.764,3.361,2.572,3.917,4.317.846,2.655-1.156,4.147-3.627,3.61-1.546-.336-2.817-1.935-5.468-3.899Z"/>
    <path class="cls-21" d="m706.672,103.994c-.5-.963-1.676-2.329-1.383-2.82,1.334-2.239,3.08-4.232,4.679-6.313.76.904,2.344,2.132,2.138,2.655-.925,2.349-2.358,4.497-3.608,6.718-.608-.08-1.216-.16-1.825-.24Z"/>
    <path class="cls-31" d="m202.114,159.122c17.037,2.332,34.09,4.56,51.085,7.169,1.604.246,3.649,2.68,4.123,4.462,7.719,29,15.205,58.062,22.769,87.103,4.762,18.283,9.596,36.548,14.31,54.843.553,2.147.553,4.437.9,7.441-13.228,0-25.674,0-38.121,0-2.424-.994-4.973-1.762-7.245-3.027-5.177-2.882-10.794-5.346-15.194-9.174-8.747-7.609-15.762-16.641-21.582-26.923-12.91-22.807-17.912-47.491-18.897-73.141-.639-16.642,3.513-32.774,7.851-48.752Z"/>
    <path class="cls-24" d="m202.114,159.122c-4.338,15.978-8.49,32.11-7.851,48.752.984,25.65,5.987,50.334,18.897,73.141,5.82,10.282,12.835,19.314,21.582,26.923,4.4,3.828,10.017,6.292,15.194,9.174,2.272,1.265,4.821,2.033,7.245,3.027-1.746.307-3.491.869-5.24.88-14.496.092-28.992.082-43.489.104-1.166.002-2.336-.049-3.499.018-8.773.506-8.95.562-11.281-7.978-8.253-30.239-16.402-60.506-24.534-90.778-5.206-19.377-10.341-38.773-15.442-58.179-.993-3.777-1.678-7.635-2.665-12.193,17.486,2.433,34.285,4.771,51.084,7.109Z"/>
    <path class="cls-16" d="m379.009,389.168c-17.243,1.021-34.486,2.043-51.73,3.063-12.246-.387-24.491-1.084-36.736-1.08-16.162.006-32.323.623-48.487.819-2.503.03-5.015-.78-7.569-1.21,2.352-1.924,4.003-3.275,5.654-4.627,9.312-.71,18.624-1.42,27.936-2.13,2.035.343,4.099,1.099,6.101.963,17.608-1.202,35.196-2.707,52.809-3.83,13.517-.862,27.062-1.303,40.594-1.932.182.63.348,1.802.549,1.808,3.314.099,6.633.052,9.951.037,3.334,2.36,2.054,5.248.927,8.118Z"/>
    <path class="cls-15" d="m367.582,379.204c-13.532.628-27.077,1.07-40.594,1.932-17.613,1.124-35.201,2.628-52.809,3.83-2.002.137-4.066-.62-6.101-.963.785-5.09-2.741-5.554-6.339-5.843-5.266-.423-10.55-.664-15.803-1.21-1.754-.182-3.436-1.063-5.148-1.626,4.777-.4,9.551-.797,14.325-1.195,38.204-.013,76.409-.044,114.613.005,2.111.003,4.222.666,6.333,1.022.079.5.158,1,.236,1.5-2.905.849-5.809,1.698-8.712,2.546Z"/>
    <path class="cls-15" d="m240.141,386.133c-1.651,1.351-3.302,2.702-5.654,4.627,2.554.429,5.067,1.24,7.569,1.21,16.164-.196,32.325-.813,48.487-.819,12.245-.004,24.49.693,36.736,1.08.604,1.943,1.208,3.884,1.811,5.826-9.369.056-18.737.169-28.106.155-14.157-.022-28.315-.012-42.47-.24-13.135-.211-26.265-.716-39.397-1.092-.499-2.934-.997-5.868-1.499-8.802,7.506-.648,15.014-1.297,22.522-1.945Z"/>
    <path class="cls-15" d="m240.163,384.872h-4.066c0-.17-.001-.341-.002-.511h4.066c0,.17.001.341.002.511Z"/>
    <path class="cls-2" d="m74.107,266.062c-.056,1.562-.113,3.125-.169,4.686-3.698-2.925-7.494-2.759-11.618-.78-1.522.731-3.503.506-5.275.718-.306.05-.612.1-.919.149l-2.351,1.219c-.215-.647-.731-1.785-.598-1.868,1.765-1.087,3.621-2.026,5.385-2.964-.146-1.324-.306-2.768-.465-4.211,5.991-2.417,11.2-.732,16.01,3.051Zm-9.09-1.24c.002-.162.004-.325.007-.487h-3.025c-.003.162-.006.325-.009.487h3.028Z"/>
    <path class="cls-24" d="m86.801,242.2c.534.351,1.068.701,1.603,1.053-2.105,4.264-5.194,10.555-7.3,14.819-.454-.19-.546.19-1,0,2.025-4.425,4.672-11.447,6.698-15.871Z"/>
    <path class="cls-2" d="m96.15,242.92c1.174-.202,2.348-.404,3.523-.605-1.173.202-2.348.404-3.523.605Z"/>
    <path class="cls-19" d="m489.893,355.705c-.54-2.181-1.081-4.362-1.621-6.545,12.282-.363,24.562-.907,36.846-1.041,17.144-.187,34.292-.049,51.438-.106,1.974-.007,3.957-.296,5.918-.578,7.673-1.102,15.338-2.254,23.007-3.387-5.711,6.805-12.933,9.904-21.888,9.972-21.453.164-42.903.706-64.354,1.105-9.782.182-19.563.386-29.344.58Z"/>
    <path class="cls-20" d="m605.48,344.047c-7.668,1.133-15.334,2.285-23.007,3.387-1.961.282-3.944.571-5.918.578-17.146.057-34.294-.081-51.438.106-12.284.134-24.564.679-36.846,1.041,0,.001-.36-.21-.36-.208-.161-2.304.847-2.955,3.183-2.992,11.666-.185,23.329-.592,34.994-.921,4.055-.106,8.109-.211,12.164-.317,2.558-.028,5.116-.055,7.674-.083,4.735-.173,9.469-.346,14.204-.519,13.832-1.652,27.69-3.121,41.478-5.081,3.603-.512,6.988-2.554,10.473-3.893-2.2,2.967-4.401,5.935-6.601,8.902Z"/>
    <path class="cls-16" d="m475.108,292.108c.659.008,1.319.017,1.979.024,1.734.296,3.467.839,5.203.85,15.525.097,31.051.099,46.576.129-1.793,3.41-3.586,6.819-5.379,10.229.67.442,1.34.884,2.01,1.326,2.536-2.863,5.071-5.725,7.607-8.588,1.001,1.416,2.522,2.713,2.877,4.276.497,2.186.126,4.57.126,6.778,2.819.25,5.205.409,7.577.68,10.575,1.206,13.348,12.893,8.431,19.74-3.479,4.844-8.462,8.626-12.881,12.768-1.55,1.452-3.419,2.564-5.142,3.83-2.667.296-5.335.592-8.002.888-11.664.329-23.327.736-34.994.921-2.336.037-3.344.689-3.183,2.992-4.946-.942-9.893-1.882-14.84-2.823-.977-7.014-1.954-14.027-2.931-21.041-.029-9.291-.16-18.585.007-27.872.031-1.716,1.27-3.411,1.952-5.116,1.003.002,2.005.005,3.008.008Zm58.33,47.42c1.891-1.18,3.576-2.159,5.185-3.249,4.823-3.265,9.221-6.897,11.632-12.47,1.685-3.895.899-7.818-2.122-9.825-2.854-1.896-6.994-2.534-10.493-2.345-.98.053-2.11,4.936-2.449,7.693-.8,6.511-1.165,13.076-1.754,20.196Z"/>
    <path class="cls-24" d="m407.066,377.788c-.298-.467-.597-.933-.894-1.4,6.228-.895,12.456-1.791,18.683-2.686.074.608.147,1.215.221,1.823-6.003.754-12.006,1.509-18.009,2.263Z"/>
    <path class="cls-27" d="m378.082,381.05c-3.318.014-6.637.062-9.951-.037-.201-.006-.367-1.179-.549-1.809,2.903-.848,5.807-1.697,8.712-2.546"/>
    <path class="cls-7" d="m431.053,520.072v8.999"/>
    <path class="cls-7" d="m431.055,498.072c.002,2,.005,3.999.007,5.999"/>
    <path class="cls-22" d="m533.104,296.078c-2.536,2.863-5.071,5.725-7.607,8.588-.67-.442-1.34-.884-2.01-1.326,1.793-3.41,3.586-6.819,5.378-10.227,6.604-9.635,13.208-19.271,19.813-28.908h5.823c-6.936,10.304-13.152,19.538-19.367,28.772-.676,1.033-1.353,2.067-2.031,3.101Z"/>
    <path class="cls-14" d="m560.13,344.12c-4.735.173-9.469.346-14.204.519,4.735-.173,9.469-.346,14.204-.519Z"/>
    <path class="cls-14" d="m526.089,345.038c2.667-.296,5.335-.593,8.002-.888,1.387.191,2.775.381,4.161.572-4.055.106-8.109.211-12.164.317Z"/>
    <path class="cls-2" d="m65.016,264.822h-3.028c.003-.162.006-.325.009-.487h3.025c-.002.162-.004.325-.007.487Z"/>
    <path class="cls-28" d="m57.044,270.685l-.437.211s-.482-.062-.482-.062c.306-.05.613-.1.919-.15Z"/>
  </g>
  <path class="cls-1" d="m321.227,77.303c-26.39,104.889-65.733,225.88-92.124,330.768l277,2-83.07-334.864c-.385.219-3.295,1.152-3.93,1.364-6,2-19.432,7.018-40,7.5-12.232.286-25.928-.215-37-1.8-5.472-.783-7-.9-14-2.9-3.361-.96-5.826-1.529-6.876-2.068Z"/>
  <path class="cls-15" d="m116.604,375.071c-.169,1.666-.463,2.988-.4,2.994,4.21-.841,6.722-1.867,15.321-3.769-8.73.55-11.204.358-14.921.775Z"/>
</svg>