<svg id="_01-Responsive" enable-background="new 0 0 64 64" height="512" viewBox="0 0 64 64" width="512" xmlns="http://www.w3.org/2000/svg"><path d="m44 57v2h-26v-2c.003-1.103.897-1.997 2-2h22c1.103.003 1.997.897 2 2z" fill="#dedede"/><path d="m41 51 1 4h-22l1-4z" fill="#969696"/><path d="m5 51c-2.209 0-4-1.791-4-4v-4h62v4c0 2.209-1.791 4-4 4z" fill="#b5b5b5"/><path d="m63 5v38h-62v-38c0-2.209 1.791-4 4-4h54c2.209 0 4 1.791 4 4z" fill="#f2f2f2"/><path d="m26.123 52h15.127l-.25-1h-20l-1 4h2.253c.456-1.765 2.047-2.999 3.87-3z" fill="#808080"/><path d="m21.184 55h-1.184c-1.103.003-1.997.897-2 2v2h26v-2h-20c-1.268-.002-2.396-.804-2.816-2z" fill="#b5b5b5"/><path d="m61 43v4c0 1.105-.895 2-2 2h-54c-1.105 0-2-.895-2-2v-4h-2v4c0 2.209 1.791 4 4 4h54c2.209 0 4-1.791 4-4v-4z" fill="#a3a3a3"/><path d="m59 1h-54c-2.209 0-4 1.791-4 4v38h2v-38c0-1.105.895-2 2-2h54c1.105 0 2 .895 2 2v38h2v-38c0-2.209-1.791-4-4-4z" fill="#dedede"/><path d="m59 3h-52c0 19.9 24.152 36 54 36v-34c0-1.105-.895-2-2-2z" fill="#fff"/><path d="m31 57h28v2c0 2.209-1.791 4-4 4h-20c-2.209 0-4-1.791-4-4z" fill="#5acafa"/><path d="m59 19v1h-7s0 3-2 3h-10c-2 0-2-3-2-3h-7v-1c0-2.209 1.791-4 4-4h20c2.209 0 4 1.791 4 4z" fill="#5acafa"/><path d="m59 20v37h-28v-37h7s0 3 2 3h10c2 0 2-3 2-3z" fill="#dedede"/><path d="m40 23h10c2 0 2-3 2-3h-14s0 3 2 3z" fill="#5acafa"/><path d="m55 61h-20c-2.209 0-4-1.791-4-4v2c0 2.209 1.791 4 4 4h20c2.209 0 4-1.791 4-4v-2c0 2.209-1.791 4-4 4z" fill="#1c99eb"/><path d="m52 20s0 3-2 3h-10c-2 0-2-3-2-3h-3c0 16.582 10.734 30 24 30v-30z" fill="#f2f2f2"/><path d="m35 17h20c1.82.002 3.408 1.237 3.859 3h.141v-1c0-2.209-1.791-4-4-4h-20c-2.209 0-4 1.791-4 4v1h.141c.451-1.763 2.039-2.998 3.859-3z" fill="#1c99eb"/><circle cx="45" cy="39" fill="#0af" r="10"/><path d="m38 40 5 5 9-9-3-3-6 6-2-2z" fill="#f2f2f2"/><path d="m27 18v-4h-2.231c-.225-.987-.616-1.929-1.156-2.785l1.579-1.579-2.828-2.828-1.579 1.579c-.856-.54-1.798-.931-2.785-1.156v-2.231h-4v2.231c-.987.225-1.929.616-2.785 1.156l-1.579-1.579-2.828 2.828 1.579 1.579c-.54.856-.931 1.798-1.156 2.785h-2.231v4h2.231c.225.987.616 1.929 1.156 2.785l-1.579 1.579 2.828 2.828 1.579-1.579c.856.54 1.798.931 2.785 1.156v2.231h4v-2.231c.987-.225 1.929-.616 2.785-1.156l1.579 1.579 2.828-2.828-1.579-1.579c.54-.856.931-1.798 1.156-2.785z" fill="#939393"/><circle cx="16" cy="16" fill="#fff" r="4"/><circle cx="27" cy="39" fill="none" r="4"/><path d="m23 39c0-2.209 1.791-4 4-4s4 1.791 4 4v-8.049c-.635-.319-1.307-.561-2-.72v-2.231h-4v2.231c-.987.225-1.929.616-2.785 1.156l-1.579-1.579-2.828 2.828 1.579 1.579c-.54.856-.931 1.798-1.156 2.785h-2.231v4h2.231c.159.693.401 1.365.72 2h8.049c-2.209 0-4-1.791-4-4z" fill="#8e8d92"/><path d="m27 43h4v-4c0 2.209-1.791 4-4 4z" fill="#8e8d92"/><path d="m45.363 42.637-2.363 2.363-5-5 1.6-1.595c-1.275-1.954-1.813-4.299-1.515-6.613-3.984 3.82-4.117 10.148-.297 14.132s10.148 4.117 14.132.297c1.666-1.597 2.728-3.722 3.005-6.013-2.529 2.448-6.166 3.373-9.557 2.429z" fill="#007aff"/><path d="m43 45 2.363-2.363c-2.377-.653-4.429-2.16-5.763-4.232l-1.6 1.595z" fill="#dedede"/><path d="m27 56h4v1h-4z" fill="#b5b5b5"/><g fill="#706f73"><path d="m27 52h4v3h-4z"/><path d="m27 52h.062 1.172s1.921.061 3.104 2h-4.338z"/><path d="m27 43.991h4v5.009h-4z"/></g><path d="m27 50h4v2h-4z" fill="#454547"/><path d="m27 43v1h3l1.047-1.047" fill="#666569"/><path d="m27 54h4v2h-4z" fill="#454547"/><path d="m31.554 15h3.014l-4.431 4.432-.942.942v-3.048z" fill="#e8e6e6"/><path d="m27 57h4v2h-4z" fill="#808080"/><path d="m27 49h4v1.011h-4z" fill="#7c7b7b"/><path d="m29 30.925c.693.191 1.365.483 2 .867v-14.385c.004-.847.195-1.678.554-2.407h-.554c-2.209 0-4 2.156-4 4.815v8.425h2z" fill="#e8e6e6"/><path d="m31 39c0-2.209-1.791-4-4-4v8c2.209 0 4-1.791 4-4z" fill="#cfcfcf"/><path d="m29 30.231v-2.231h-2v7c2.209 0 4 1.791 4 4v-8.049c-.635-.319-1.307-.561-2-.72z" fill="#706f73"/><path d="m31 39c0 2.209-1.791 4-4 4h4z" fill="#666569"/><path d="m2 5c0-1.657 1.343-3 3-3h2v-2h-2c-2.76.003-4.997 2.24-5 5v42c.003 2.76 2.24 4.997 5 5h14.719l-.531 2.126c-1.289.362-2.182 1.535-2.188 2.874v2c0 .552.448 1 1 1h9v-2h-8v-1c0-.552.448-1 1-1h7v-2h-5.719l.5-2h5.219v-2h-22c-1.657 0-3-1.343-3-3v-3h25v-2h-25z"/><path d="m9 0h2.001v2h-2.001z"/><path d="m59 0h-46v2h46c1.657 0 3 1.343 3 3v42c-.005 1.267-.806 2.394-2 2.816v-30.816c-.003-2.76-2.24-4.997-5-5h-20c-2.76.003-4.997 2.24-5 5v40c.003 2.76 2.24 4.997 5 5h20c2.76-.003 4.997-2.24 5-5v-7.1c2.326-.478 3.997-2.525 4-4.9v-42c-.003-2.76-2.24-4.997-5-5zm-24 16h20c1.657 0 3 1.343 3 3h-6c-.552 0-1 .448-1 1 0 .02-.056 2-1 2h-10c-.944 0-1-1.983-1-2 0-.552-.448-1-1-1h-6c0-1.657 1.343-3 3-3zm23 5v35h-26v-35h5.093c.248 1.368 1.033 3 2.907 3h10c1.874 0 2.659-1.632 2.907-3zm-3 41h-20c-1.657 0-3-1.343-3-3v-1h26v1c0 1.657-1.343 3-3 3z"/><path d="m4 46h2v2h-2z"/><path d="m8 46h6v2h-6z"/><path d="m41 18h8v2h-8z"/><path d="m41 59h8v2h-8z"/><path d="m6.1 10.343 1.037 1.038c-.271.519-.495 1.061-.671 1.619h-1.466c-.552 0-1 .448-1 1v4c0 .552.448 1 1 1h1.466c.176.558.401 1.1.672 1.619l-1.038 1.038c-.39.39-.39 1.024 0 1.414l2.829 2.829c.391.39 1.024.39 1.414 0l1.038-1.037c.519.271 1.061.495 1.619.671v1.466c0 .552.448 1 1 1h4c.552 0 1-.448 1-1v-1.466c.558-.176 1.1-.401 1.619-.672l1.038 1.038c.39.39 1.024.39 1.414 0l2.829-2.829c.39-.39.39-1.024 0-1.414l-1.037-1.038c.271-.519.495-1.061.671-1.619h1.466c.552 0 1-.448 1-1v-4c0-.552-.448-1-1-1h-1.466c-.176-.558-.401-1.1-.672-1.619l1.038-1.038c.39-.391.39-1.023 0-1.414l-2.829-2.829c-.39-.39-1.024-.39-1.414 0l-1.038 1.038c-.519-.271-1.061-.496-1.619-.672v-1.466c0-.552-.448-1-1-1h-4c-.552 0-1 .448-1 1v1.466c-.558.176-1.1.401-1.619.672l-1.038-1.038c-.391-.39-1.023-.39-1.414 0l-2.829 2.829c-.39.39-.39 1.024 0 1.414zm2.1 3.879c.199-.877.547-1.713 1.027-2.473.249-.395.192-.911-.139-1.241l-.872-.872 1.42-1.414.872.872c.33.331.846.388 1.241.139.76-.48 1.596-.828 2.473-1.027.455-.104.778-.509.778-.976v-1.23h2v1.23c0 .467.323.872.778.976.877.199 1.713.547 2.473 1.027.395.249.911.192 1.241-.139l.872-.872 1.414 1.414-.872.872c-.331.33-.388.846-.139 1.241.48.76.828 1.596 1.027 2.473.104.455.509.778.976.778h1.23v2h-1.23c-.467 0-.872.323-.976.778-.199.877-.547 1.713-1.027 2.473-.249.395-.192.911.139 1.241l.872.872-1.414 1.414-.872-.872c-.33-.331-.846-.388-1.241-.139-.76.48-1.596.828-2.473 1.027-.455.104-.778.509-.778.976v1.23h-2v-1.23c0-.467-.323-.872-.778-.976-.877-.199-1.713-.547-2.473-1.027-.395-.249-.911-.192-1.241.139l-.872.872-1.414-1.414.872-.872c.331-.33.388-.846.139-1.241-.48-.76-.828-1.596-1.027-2.473-.104-.455-.509-.778-.976-.778h-1.23v-2h1.23c.467 0 .872-.323.976-.778z"/><path d="m16 21c2.761 0 5-2.239 5-5s-2.239-5-5-5-5 2.239-5 5c.003 2.76 2.24 4.997 5 5zm0-8c1.657 0 3 1.343 3 3s-1.343 3-3 3-3-1.343-3-3 1.343-3 3-3z"/><path d="m24 28v1.466c-.558.176-1.1.401-1.619.672l-1.038-1.038c-.39-.39-1.024-.39-1.414 0l-2.829 2.829c-.39.39-.39 1.024 0 1.414l1.037 1.038c-.271.519-.495 1.061-.671 1.619h-1.466c-.552 0-1 .448-1 1v4h2v-3h1.23c.467 0 .872-.323.976-.778.199-.877.547-1.713 1.027-2.473.249-.395.192-.911-.139-1.241l-.872-.872 1.414-1.414.872.872c.33.331.846.388 1.241.139.76-.48 1.596-.828 2.473-1.027.455-.104.778-.509.778-.976v-1.23h1v-2h-2c-.552 0-1 .448-1 1z"/><path d="m27 36v-2c-2.76.003-4.997 2.24-5 5h2c0-1.657 1.343-3 3-3z"/><path d="m34 39c0 6.075 4.925 11 11 11s11-4.925 11-11-4.925-11-11-11c-6.072.007-10.993 4.928-11 11zm20 0c0 4.971-4.029 9-9 9s-9-4.029-9-9 4.029-9 9-9c4.968.006 8.994 4.032 9 9z"/><path d="m41.707 36.293c-.39-.39-1.024-.39-1.414 0l-3 3c-.39.39-.39 1.024 0 1.414l5 5c.39.39 1.024.39 1.414 0l9-9c.39-.39.39-1.024 0-1.414l-3-3c-.39-.39-1.024-.39-1.414 0l-5.293 5.293zm7.293-1.879 1.586 1.586-7.586 7.586-3.586-3.586 1.586-1.586 1.293 1.293c.39.39 1.024.39 1.414 0z"/><path d="m57 4h2v2h-2z"/><path d="m42 4h13v2h-13z"/></svg>