<svg id="Layer_1" height="512" viewBox="0 0 256 256" width="512" xmlns="http://www.w3.org/2000/svg" data-name="Layer 1"><path d="m155.97 225.17h-55.94l7.23-30.17 1.68-7h38.12l1.68 7z" fill="#72c2e9"/><path d="m148.74 195h-41.48l1.68-7h38.12z" fill="#4ba5c8"/><rect fill="#72c2e9" height="171.5" rx="10" width="241.5" x="7.25" y="16.5"/><path d="m57.25-3.5h141.5v211.5h-141.5z" fill="#efefef" transform="matrix(0 1 -1 0 230.25 -25.75)"/><path d="m164.67 59.27v47.07l-11.75-.89 1.8 23.68 6.81-6.81 3.14 3.14v19.77a5 5 0 0 1 -5 5h-112a5 5 0 0 1 -5-5v-86a5 5 0 0 1 5-5h112a5 5 0 0 1 5 5.04z" fill="#f0c020"/><path d="m164.67 106.34-11.75-.89 1.8 23.68 6.81-6.81 3.14 3.14v9.91l-3.14-3.15-1.86 1.86a7 7 0 0 1 -11.93-4.42l-1.8-23.66a7 7 0 0 1 7.51-7.51l11.22.85z" fill="#e8a61e"/><path d="m159.67 54.27h-89.17l6.21 14.73a5 5 0 0 0 4.6 3h83.36v-12.73a5 5 0 0 0 -5-5z" fill="#fb5e3d"/><path d="m225.75 167.5h-181.5a2.5 2.5 0 0 1 0-5h179v-123a2.5 2.5 0 0 1 5 0v125.5a2.5 2.5 0 0 1 -2.5 2.5zm-191.5 0h-4a2.5 2.5 0 0 1 0-5h4a2.5 2.5 0 0 1 0 5z" fill="#fff"/><rect fill="#72c2e9" height="14.33" rx="7.17" width="96.16" x="79.92" y="225.17"/><rect fill="#fb5e3d" height="22.47" rx="5" width="22.47" x="190.25" y="54.27"/><rect fill="#13bf6d" height="22.47" rx="5" width="22.47" x="190.25" y="91.02"/><rect fill="#f0c020" height="22.47" rx="5" width="22.47" x="190.25" y="127.77"/><path d="m181.01 125.27-8.27 8.27-8.07-8.08-3.14-3.14-6.81 6.81-1.8-23.68 11.75.89 11.93.91-6.8 6.81z" fill="#efefef"/><rect fill="#efefef" height="28.98" rx="3" width="74" x="66.67" y="84.5"/><path d="m251.25 26.5a12.52 12.52 0 0 0 -12.5-12.5h-221.5a12.52 12.52 0 0 0 -12.5 12.5v151.5a12.52 12.52 0 0 0 12.5 12.5h35.57a2.5 2.5 0 0 0 0-5h-35.57a7.53 7.53 0 0 1 -7.5-7.5v-151.5a7.53 7.53 0 0 1 7.5-7.5h221.5a7.53 7.53 0 0 1 7.5 7.5v151.5a7.53 7.53 0 0 1 -7.5 7.5h-165.93a2.5 2.5 0 0 0 0 5h33l-7.71 32.17h-11a9.67 9.67 0 0 0 0 19.33h81.84a9.67 9.67 0 0 0 0-19.33h-11l-7.71-32.17h88.52a12.52 12.52 0 0 0 12.5-12.5zm-82.33 201.17a4.67 4.67 0 0 1 0 9.33h-81.84a4.67 4.67 0 0 1 0-9.33zm-16.12-5h-49.6l7.71-32.17h34.18z"/><circle cx="62.82" cy="188" r="2.5"/><circle cx="233.75" cy="68.5" r="2.5"/><path d="m236.25 31.5a2.49 2.49 0 0 0 -2.5-2.5h-211.5a2.51 2.51 0 0 0 -2.5 2.5v141.5a2.5 2.5 0 0 0 2.5 2.5h211.5a2.49 2.49 0 0 0 2.5-2.5v-94.5a2.5 2.5 0 0 0 -5 0v92h-206.5v-136.5h206.5v24.5a2.5 2.5 0 0 0 5 0z"/><path d="m215.22 59.27a7.5 7.5 0 0 0 -7.5-7.5h-12.47a7.5 7.5 0 0 0 -7.5 7.5v12.46a7.5 7.5 0 0 0 7.5 7.5h12.47a7.5 7.5 0 0 0 7.5-7.5zm-5 12.46a2.5 2.5 0 0 1 -2.5 2.5h-12.47a2.5 2.5 0 0 1 -2.5-2.5v-12.46a2.5 2.5 0 0 1 2.5-2.5h12.47a2.5 2.5 0 0 1 2.5 2.5z"/><path d="m215.22 96a7.5 7.5 0 0 0 -7.5-7.5h-12.47a7.5 7.5 0 0 0 -7.5 7.5v12.46a7.5 7.5 0 0 0 7.5 7.5h12.47a7.5 7.5 0 0 0 7.5-7.5zm-5 12.46a2.5 2.5 0 0 1 -2.5 2.5h-12.47a2.5 2.5 0 0 1 -2.5-2.5v-12.46a2.5 2.5 0 0 1 2.5-2.5h12.47a2.5 2.5 0 0 1 2.5 2.5z"/><path d="m207.72 125.27h-12.47a7.5 7.5 0 0 0 -7.5 7.5v12.46a7.5 7.5 0 0 0 7.5 7.5h12.47a7.5 7.5 0 0 0 7.5-7.5v-12.46a7.5 7.5 0 0 0 -7.5-7.5zm2.5 20a2.5 2.5 0 0 1 -2.5 2.5h-12.47a2.5 2.5 0 0 1 -2.5-2.5v-12.5a2.5 2.5 0 0 1 2.5-2.5h12.47a2.5 2.5 0 0 1 2.5 2.5z"/><path d="m61.38 64h-6.63a2.5 2.5 0 0 0 0 5h6.63a2.5 2.5 0 0 0 0-5z"/><path d="m159.67 51.77h-112a7.5 7.5 0 0 0 -7.5 7.5v86a7.5 7.5 0 0 0 7.5 7.5h112a7.5 7.5 0 0 0 7.5-7.5v-13.77l3.8 3.81a2.51 2.51 0 0 0 3.54 0l8.27-8.27a2.52 2.52 0 0 0 0-3.54l-9.45-9.44 5-5a2.5 2.5 0 0 0 -1.58-4.26l-9.62-.73v-44.8a7.5 7.5 0 0 0 -7.46-7.5zm0 5a2.5 2.5 0 0 1 2.5 2.5v10.23h-80.86a2.5 2.5 0 0 1 -2.31-1.5l-4.74-11.2zm2.5 88.46a2.5 2.5 0 0 1 -2.5 2.5h-112a2.5 2.5 0 0 1 -2.5-2.5v-86a2.5 2.5 0 0 1 2.5-2.5h21.17l5.57 13.15a7.47 7.47 0 0 0 6.9 4.58h80.86v29.14l-9.06-.68a2.49 2.49 0 0 0 -2.68 2.68l1.8 23.68a2.5 2.5 0 0 0 4.26 1.58l5-5 .64.64zm8.82-35.9-3 3a2.52 2.52 0 0 0 0 3.54l9.44 9.44-4.69 4.69-6.29-6.29-3.14-3.14a2.51 2.51 0 0 0 -3.54 0l-3 3-1.17-15.35z"/><path d="m137.67 82h-68a5.51 5.51 0 0 0 -5.5 5.5v23a5.5 5.5 0 0 0 5.5 5.5h68a5.5 5.5 0 0 0 5.5-5.5v-23a5.51 5.51 0 0 0 -5.5-5.5zm.5 28.48a.5.5 0 0 1 -.5.5h-68a.5.5 0 0 1 -.5-.5v-23a.5.5 0 0 1 .5-.5h68a.5.5 0 0 1 .5.5z"/><path d="m81.88 123.5h-15.21a2.5 2.5 0 0 0 0 5h15.21a2.5 2.5 0 0 0 0-5z"/><path d="m81.88 134.63h-15.21a2.5 2.5 0 0 0 0 5h15.21a2.5 2.5 0 0 0 0-5z"/><path d="m111.27 123.5h-15.2a2.5 2.5 0 0 0 0 5h15.2a2.5 2.5 0 0 0 0-5z"/><path d="m111.27 134.63h-15.2a2.5 2.5 0 0 0 0 5h15.2a2.5 2.5 0 0 0 0-5z"/><path d="m140.67 123.5h-15.21a2.5 2.5 0 1 0 0 5h15.21a2.5 2.5 0 0 0 0-5z"/><path d="m140.67 134.63h-15.21a2.5 2.5 0 1 0 0 5h15.21a2.5 2.5 0 0 0 0-5z"/><path d="m92.4 102.65a2.5 2.5 0 1 0 3.54 0 2.59 2.59 0 0 0 -3.54 0z"/><path d="m101.9 102.65a2.5 2.5 0 1 0 3.54 0 2.59 2.59 0 0 0 -3.54 0z"/><path d="m111.4 102.65a2.5 2.5 0 1 0 3.54 0 2.59 2.59 0 0 0 -3.54 0z"/><path d="m153.06 65.63h.5a2.5 2.5 0 1 0 0-5h-.5a2.5 2.5 0 0 0 0 5z"/><path d="m141.5 65.63h.5a2.5 2.5 0 1 0 0-5h-.5a2.5 2.5 0 0 0 0 5z"/><path d="m129.94 65.63h.5a2.5 2.5 0 1 0 0-5h-.5a2.5 2.5 0 0 0 0 5z"/></svg>