<svg id="icons" height="512" viewBox="0 0 60 60" width="512" xmlns="http://www.w3.org/2000/svg"><path d="m59 9v47a3 3 0 0 1 -3 3h-52a3 3 0 0 1 -3-3v-47l1-1h56z" fill="#c4ddf0"/><path d="m59 4v5h-58v-5a3 3 0 0 1 3-3h52a3 3 0 0 1 3 3z" fill="#4b88a9"/><circle cx="30" cy="34" fill="#5fb775" r="13"/><g fill="#373737"><path d="m56 0h-52a4 4 0 0 0 -4 4v8a1 1 0 0 0 2 0v-2h56v46a2 2 0 0 1 -2 2h-52a2 2 0 0 1 -2-2v-40a1 1 0 0 0 -2 0v40a4 4 0 0 0 4 4h52a4 4 0 0 0 4-4v-52a4 4 0 0 0 -4-4zm-54 8v-4a2 2 0 0 1 2-2h52a2 2 0 0 1 2 2v4z"/><path d="m30 48a14 14 0 1 0 -14-14 14.015 14.015 0 0 0 14 14zm0-26a12 12 0 1 1 -12 12 12.013 12.013 0 0 1 12-12z"/><path d="m6 4h-1a1 1 0 0 0 0 2h1a1 1 0 0 0 0-2z"/><path d="m11 4h-1a1 1 0 0 0 0 2h1a1 1 0 0 0 0-2z"/><path d="m16 4h-1a1 1 0 0 0 0 2h1a1 1 0 0 0 0-2z"/><path d="m55 4h-6a1 1 0 0 0 0 2h6a1 1 0 0 0 0-2z"/><path d="m30 13a21.011 21.011 0 0 0 -20.932 19.654l-1.361-1.361a1 1 0 0 0 -1.414 1.414l3 3a1 1 0 0 0 1.414 0l3-3a1 1 0 0 0 -1.414-1.414l-1.218 1.217a18.993 18.993 0 0 1 37.055-4.21 1 1 0 1 0 1.908-.6 20.91 20.91 0 0 0 -20.038-14.7z"/><path d="m10.616 39.046a1 1 0 0 0 -.654 1.254 20.988 20.988 0 0 0 40.97-4.954l1.361 1.361a1 1 0 0 0 1.414-1.414l-3-3a1 1 0 0 0 -1.414 0l-3 3a1 1 0 0 0 1.414 1.414l1.218-1.217a18.993 18.993 0 0 1 -37.055 4.21 1 1 0 0 0 -1.254-.654z"/><path d="m26.293 40.707a1 1 0 0 0 .707.293h.071a1 1 0 0 0 .729-.4l9-12a1 1 0 0 0 -1.6-1.2l-8.308 11.078-2.185-2.185a1 1 0 0 0 -1.414 1.414z"/></g></svg>