<?xml version="1.0" encoding="UTF-8"?>
<svg id="Layer_1" data-name="Layer 1" xmlns="http://www.w3.org/2000/svg" viewBox="0 0 209.75 213.5">
  <defs>
    <style>
      .cls-1 {
        fill: #f30002;
      }

      .cls-2 {
        fill: #9fc100;
      }

      .cls-3 {
        fill: #abce3a;
      }
    </style>
  </defs>
  <path class="cls-3" d="m33.662,117h44.787c1.241-1.834,2.045-9.941,1.892-17.865-.126-6.551-.89-12.067-1.892-13.398h-44.787c-1.003,1.331-1.766,6.847-1.892,13.398-.153,7.923.651,16.031,1.892,17.865Z"/>
  <path class="cls-1" d="m27.86,34c-7.4,6.33-10.09,13.92-11,17v80.5c2.08,1.63,5.06,4.24,8,8,2.83,3.62,4.56,6.92,6,10,5.74,12.27,10.95,29.51,12,33,1.07,4.08,3.62,11.64,10,19,5.84,6.74,12.25,10.28,16,12h72c4.93-1.88,12.34-5.58,18-13,2.55-3.35,4.16-6.69,8-18,2.22-6.53,5.05-15.35,8-26,1.65-4.79,4.59-11.4,10-18,2.72-3.31,5.49-5.94,8-8V51.5c-.94-3.77-3.01-9.76-8-15-6.83-7.17-15.38-9.98-20-10-40-.17-80-.33-120-.5-3.19.56-10.27,2.24-17,8Zm100.114,171.5h-47c-1.995-.267-3.5-1.988-3.5-4s1.505-3.733,3.5-4h47c1.995.267,3.5,1.987,3.5,4s-1.505,3.733-3.5,4Zm.386-16h-47c-1.995-.267-3.5-1.988-3.5-4s1.505-3.733,3.5-4h47c1.995.267,3.5,1.987,3.5,4s-1.505,3.733-3.5,4Zm-8.5-112h60.219c1.516,0,2.964.648,3.944,1.805.293.346.578.742.838,1.195.29.507.499,1,.649,1.455.345,1.039.366,2.125.368,2.325.02,1.514.03,15.304-.018,34.22-.092.707-.326,1.817-1,3-.249.438-.634,1.006-1.228,1.609-.892.904-2.12,1.391-3.39,1.391h-60.382v-47Zm-25,90h20c2.194,0,4,1.806,4,4s-1.806,4-4,4h-20c-2.194,0-4-1.806-4-4s1.806-4,4-4Zm-5-43H29.573c-1.36,0-2.689-.52-3.617-1.515-.381-.409-.761-.9-1.096-1.485-.396-.692-.64-1.36-.793-1.936-.15-.568-.207-1.154-.207-1.741v-33.856c0-.36.028-.717.1-1.07.135-.665.394-1.51.9-2.396.371-.648.796-1.181,1.218-1.614.872-.894,2.072-1.386,3.321-1.386h60.461v47Z"/>
  <path class="cls-1" d="m205.45,72.01c-1.46.15-2.69,1.01-2.98,2.12.09,16.59.18,33.18.28,49.77.3,1.11,1.54,1.95,3.01,2.08,1.77.16,3.58-.74,3.99-2.12-.1-16.59-.19-33.18-.28-49.77-.42-1.37-2.24-2.26-4.02-2.08Z"/>
  <path class="cls-2" d="m176.131,84h-44.787c-1.003,1.331-1.766,6.847-1.892,13.398-.153,7.923.651,16.031,1.892,17.865h44.787c1.241-1.834,2.045-9.941,1.892-17.865-.126-6.551-.89-12.067-1.892-13.398Z"/>
  <path class="cls-1" d="m2.99,71.78c-1.47.15-2.7,1-2.99,2.12.09,16.59.19,33.18.28,49.76.31,1.12,1.55,1.96,3.01,2.09,1.78.16,3.59-.74,3.99-2.13-.09-16.58-.19-33.17-.28-49.76-.42-1.38-2.24-2.26-4.01-2.08Z"/>
</svg>